<svg xmlns="http://www.w3.org/2000/svg" width="820" height="820" viewBox="0 0 820 820"><defs><style>.cls-1{fill:#00415a;}.cls-2,.cls-3{fill:none;stroke-miterlimit:10;stroke-width:16px;}.cls-2{stroke:#005f87;}.cls-3{stroke:#64b4dc;}</style></defs><g id="Outlinet_Tekst_DK_09.09.21"><path class="cls-1" d="M214.8223,604.8527v7.38h-28.92v-40.2h8.16v32.82Z"/><path class="cls-1" d="M249.9814,582.2931v29.94h-7.92v-2.7a12.737,12.737,0,0,1-9.42,3.6006,12.2369,12.2369,0,0,1-6.27-1.59,10.8468,10.8468,0,0,1-4.23-4.4707,13.9459,13.9459,0,0,1-1.5-6.54V582.2931h7.92v16.56a7.549,7.549,0,0,0,1.65,5.1,5.5166,5.5166,0,0,0,4.41,1.92,6.54,6.54,0,0,0,5.4892-2.5195q1.95-2.521,1.95-7.8v-13.26Z"/><path class="cls-1" d="M267.8613,582.2931h9.0606v6.48h-9.0606v23.46h-7.92v-23.46h-4.56v-6.48h4.56v-2.7a10.845,10.845,0,0,1,3.24-8.28,11.9842,11.9842,0,0,1,8.58-3.06,12.5508,12.5508,0,0,1,5.34,1.1406l-1.8,6.42a9.5275,9.5275,0,0,0-3-.54,4.538,4.538,0,0,0-3.21,1.14,4.124,4.124,0,0,0-1.23,3.1807Z"/><path class="cls-1" d="M304.1016,610.9122a21.6193,21.6193,0,0,1-4.08,1.71,13.5888,13.5888,0,0,1-3.7207.5108q-5.5211,0-8.64-2.9708-3.12-2.9691-3.12-8.97v-12.42h-6.42v-6.48h6.42v-9.06h7.92v9.06h9.78v6.48h-9.78v11.82a5.5788,5.5788,0,0,0,1.17,3.8994,4.1653,4.1653,0,0,0,3.21,1.26,8.9849,8.9849,0,0,0,2.4-.39,12.2176,12.2176,0,0,0,2.58-1.05Z"/><path class="cls-1" d="M351.5,582.2931v29.94h-7.92v-2.7a12.7372,12.7372,0,0,1-9.42,3.6006,12.2375,12.2375,0,0,1-6.27-1.59,10.8466,10.8466,0,0,1-4.23-4.4707,13.9459,13.9459,0,0,1-1.5-6.54V582.2931h7.92v16.56a7.549,7.549,0,0,0,1.65,5.1,5.5165,5.5165,0,0,0,4.41,1.92,6.54,6.54,0,0,0,5.4893-2.5195q1.95-2.521,1.95-7.8v-13.26Z"/><path class="cls-1" d="M390.0205,569.0324v43.2h-7.92v-2.34a15.2727,15.2727,0,0,1-9.9,3.24,13.9455,13.9455,0,0,1-7.2305-2.0108,14.8616,14.8616,0,0,1-5.43-5.64,17.46,17.46,0,0,1,0-16.38,15.11,15.11,0,0,1,5.43-5.67,13.7951,13.7951,0,0,1,7.2305-2.04,14.9479,14.9479,0,0,1,9.9,3.3v-15.66Zm-12.3008,36.09a8.4273,8.4273,0,0,0,3.1807-3.1494,9.0561,9.0561,0,0,0,1.2-4.68,9.2261,9.2261,0,0,0-1.2-4.7109,8.4873,8.4873,0,0,0-7.32-4.2891,8.0162,8.0162,0,0,0-6.03,2.459,9.03,9.03,0,0,0-2.3691,6.541,8.9227,8.9227,0,0,0,2.3691,6.51,8.0656,8.0656,0,0,0,6.03,2.43A8.3327,8.3327,0,0,0,377.72,605.1222Z"/><path class="cls-1" d="M434.99,583.5529a15.1567,15.1567,0,0,1,5.88,5.58,16.2991,16.2991,0,0,1,0,16.3193,15.1574,15.1574,0,0,1-5.88,5.58,16.798,16.798,0,0,1-8.07,1.98,17.2659,17.2659,0,0,1-8.19-1.98,15.0983,15.0983,0,0,1-5.9395-5.55,16.4064,16.4064,0,0,1,0-16.38,15.104,15.104,0,0,1,5.9395-5.55,17.266,17.266,0,0,1,8.19-1.9805A16.7981,16.7981,0,0,1,434.99,583.5529ZM430.97,605.1222a9.0611,9.0611,0,0,0,0-15.6592,8.0774,8.0774,0,0,0-4.05-1.11,8.6448,8.6448,0,0,0-4.2,1.08,8.4175,8.4175,0,0,0-3.21,3.12,9.7507,9.7507,0,0,0,0,9.48,8.411,8.411,0,0,0,3.21,3.12,8.6459,8.6459,0,0,0,4.2,1.08A8.0673,8.0673,0,0,0,430.97,605.1222Z"/><path class="cls-1" d="M478.2793,610.8527q0,6.7792-4.32,10.53-4.32,3.7485-11.6992,3.75a21.1146,21.1146,0,0,1-8.8809-1.711,12.803,12.803,0,0,1-5.6992-4.89l6.42-4.86a13.1637,13.1637,0,0,0,3.6,3.33,9.175,9.175,0,0,0,4.5606.99,8.2959,8.2959,0,0,0,6.09-2.22,8.2091,8.2091,0,0,0,2.25-6.12V607.672q-3.42,2.7612-9.42,2.7608a13.8845,13.8845,0,0,1-7.08-1.95,15.1546,15.1546,0,0,1-5.4-5.28,14.1522,14.1522,0,0,1,0-14.64,14.92,14.92,0,0,1,5.4-5.25,14.0633,14.0633,0,0,1,7.08-1.92q5.8783,0,9.42,2.76v-1.8594h7.62Zm-11.76-8.1905a7.734,7.734,0,0,0,2.97-2.76,7.9409,7.9409,0,0,0,0-8.1,7.7343,7.7343,0,0,0-2.97-2.76,8.3066,8.3066,0,0,0-3.96-.99,8.416,8.416,0,0,0-5.94,2.16,7.9666,7.9666,0,0,0,0,11.2793,8.4156,8.4156,0,0,0,5.94,2.16A8.3056,8.3056,0,0,0,466.52,602.6622Z"/><path class="cls-1" d="M508.67,605.8126a8.32,8.32,0,0,0,4.23.96,6.0882,6.0882,0,0,0,3.42-.84,2.5127,2.5127,0,0,0,1.26-2.16q0-1.98-3.3-2.7l-6.12-1.26a11.9411,11.9411,0,0,1-6.27-3.06,7.4672,7.4672,0,0,1-2.19-5.459,9.0363,9.0363,0,0,1,1.5-5.1309,9.914,9.914,0,0,1,4.2608-3.51,15.4725,15.4725,0,0,1,6.48-1.26,14.8442,14.8442,0,0,1,8.73,2.46,9.9959,9.9959,0,0,1,4.29,6.42l-7.5606,1.5a4.2963,4.2963,0,0,0-1.7695-3,6.4094,6.4094,0,0,0-3.9307-1.14,4.5855,4.5855,0,0,0-3.12.8691,2.7069,2.7069,0,0,0-.96,2.07,2.2753,2.2753,0,0,0,.54,1.53,4.02,4.02,0,0,0,2.16.99l7.1407,1.56a10.6347,10.6347,0,0,1,5.85,3.09,7.79,7.79,0,0,1,2.01,5.37,8.6186,8.6186,0,0,1-3.5693,7.4405q-3.5713,2.578-9.57,2.58a17.8989,17.8989,0,0,1-9.12-2.1905,8.4333,8.4333,0,0,1-4.32-6.63l7.98-1.62A4.0131,4.0131,0,0,0,508.67,605.8126Z"/><path class="cls-1" d="M563.06,612.2326H552.499l-10.8594-11.7h-2.28v11.7h-7.92v-43.2h7.92v23.7h2.22l9.96-10.44h9.96l-14.46,14.34Z"/><path class="cls-1" d="M595.5791,582.2931v29.94h-7.92v-2.34a15.2727,15.2727,0,0,1-9.9,3.24,13.9455,13.9455,0,0,1-7.2305-2.0108,14.8616,14.8616,0,0,1-5.43-5.64,17.46,17.46,0,0,1,0-16.38,15.11,15.11,0,0,1,5.43-5.67,13.7951,13.7951,0,0,1,7.2305-2.04,14.9481,14.9481,0,0,1,9.9,3.3v-2.3994Zm-12.3008,22.8291a8.4273,8.4273,0,0,0,3.1807-3.1494,9.0561,9.0561,0,0,0,1.2-4.68,9.2261,9.2261,0,0,0-1.2-4.7109,8.4873,8.4873,0,0,0-7.32-4.2891,8.0162,8.0162,0,0,0-6.03,2.459,9.03,9.03,0,0,0-2.3691,6.541,8.9227,8.9227,0,0,0,2.3691,6.51,8.0656,8.0656,0,0,0,6.03,2.43A8.3327,8.3327,0,0,0,583.2783,605.1222Z"/><path class="cls-1" d="M629.0283,583.4328a15.1157,15.1157,0,0,1,5.43,5.67,17.46,17.46,0,0,1,0,16.38,14.8675,14.8675,0,0,1-5.43,5.64,13.95,13.95,0,0,1-7.23,2.0108,15.2681,15.2681,0,0,1-9.8995-3.24v2.34h-7.92v-43.2h7.92v15.66a14.9438,14.9438,0,0,1,9.8995-3.3A13.8,13.8,0,0,1,629.0283,583.4328Zm-2.58,20.37a8.9233,8.9233,0,0,0,2.37-6.51,9.0308,9.0308,0,0,0-2.37-6.541,8.0175,8.0175,0,0,0-6.03-2.459,8.4841,8.4841,0,0,0-7.3194,4.2891,9.2172,9.2172,0,0,0-1.2,4.7109,9.0475,9.0475,0,0,0,1.2,4.68,8.5436,8.5436,0,0,0,7.3194,4.26A8.0669,8.0669,0,0,0,626.4482,603.8029Z"/><path class="cls-1" d="M254.5723,682.8527q0,6.7792-4.32,10.53-4.32,3.7485-11.6993,3.75a21.1138,21.1138,0,0,1-8.8808-1.711,12.803,12.803,0,0,1-5.6992-4.89l6.42-4.86a13.1609,13.1609,0,0,0,3.6,3.33,9.1746,9.1746,0,0,0,4.56.99,8.2961,8.2961,0,0,0,6.09-2.22,8.2091,8.2091,0,0,0,2.25-6.12V679.672q-3.42,2.7612-9.42,2.7608a13.8842,13.8842,0,0,1-7.08-1.95,15.1546,15.1546,0,0,1-5.4-5.28,14.1516,14.1516,0,0,1,0-14.64,14.92,14.92,0,0,1,5.4-5.25,14.0631,14.0631,0,0,1,7.08-1.92q5.8784,0,9.42,2.76v-1.8594h7.62Zm-11.76-8.1905a7.733,7.733,0,0,0,2.97-2.76,7.94,7.94,0,0,0,0-8.1,7.7333,7.7333,0,0,0-2.97-2.76,8.3067,8.3067,0,0,0-3.96-.99,8.4158,8.4158,0,0,0-5.94,2.16,7.9666,7.9666,0,0,0,0,11.2793,8.4154,8.4154,0,0,0,5.94,2.16A8.3057,8.3057,0,0,0,242.8125,674.6622Z"/><path class="cls-1" d="M291.2324,671.3927h-22.8a8.8576,8.8576,0,0,0,2.67,5.07,6.9374,6.9374,0,0,0,4.83,1.89,10.96,10.96,0,0,0,4.14-.75,7.1064,7.1064,0,0,0,3.3-3.21l7.08,1.5a14.4123,14.4123,0,0,1-5.6992,6.9,16.4194,16.4194,0,0,1-8.82,2.34,15.2414,15.2414,0,0,1-7.71-2.0108,14.875,14.875,0,0,1-5.58-5.6094,16.1924,16.1924,0,0,1-2.07-8.22,16.3571,16.3571,0,0,1,2.07-8.25,14.7544,14.7544,0,0,1,5.61-5.6406,15.5181,15.5181,0,0,1,7.8-2.01,14.8221,14.8221,0,0,1,7.41,1.95,15.0612,15.0612,0,0,1,5.55,5.43,15.8993,15.8993,0,0,1,2.22,7.92Zm-19.7695-9.66a6.69,6.69,0,0,0-2.79,4.08h14.46a7.4167,7.4167,0,0,0-2.67-4.1406,7.2877,7.2877,0,0,0-4.41-1.3789A8.0345,8.0345,0,0,0,271.4629,661.7326Z"/><path class="cls-1" d="M320.8418,654.9826a10.8624,10.8624,0,0,1,4.2305,4.47,13.9609,13.9609,0,0,1,1.5,6.54v18.24h-7.92V667.672a7.5594,7.5594,0,0,0-1.65-5.1,5.5253,5.5253,0,0,0-4.41-1.92,6.538,6.538,0,0,0-5.4893,2.5195q-1.9511,2.5211-1.95,7.8008v13.26h-7.92v-29.94h7.92v2.6992a12.7406,12.7406,0,0,1,9.42-3.6A12.2324,12.2324,0,0,1,320.8418,654.9826Z"/><path class="cls-1" d="M357.8018,654.9826a10.8622,10.8622,0,0,1,4.23,4.47,13.9609,13.9609,0,0,1,1.5,6.54v18.24h-7.92V667.672a7.56,7.56,0,0,0-1.65-5.1,5.5251,5.5251,0,0,0-4.41-1.92,6.5378,6.5378,0,0,0-5.4893,2.5195q-1.9512,2.5211-1.95,7.8008v13.26h-7.92v-29.94h7.92v2.6992a12.74,12.74,0,0,1,9.42-3.6A12.2328,12.2328,0,0,1,357.8018,654.9826Z"/><path class="cls-1" d="M399.4121,671.3927h-22.8a8.857,8.857,0,0,0,2.67,5.07,6.9374,6.9374,0,0,0,4.83,1.89,10.96,10.96,0,0,0,4.14-.75,7.1064,7.1064,0,0,0,3.3-3.21l7.08,1.5a14.4129,14.4129,0,0,1-5.6992,6.9,16.4194,16.4194,0,0,1-8.82,2.34,15.242,15.242,0,0,1-7.71-2.0108,14.8748,14.8748,0,0,1-5.58-5.6094,16.1924,16.1924,0,0,1-2.07-8.22,16.3571,16.3571,0,0,1,2.07-8.25,14.7537,14.7537,0,0,1,5.61-5.6406,15.5181,15.5181,0,0,1,7.8-2.01,14.8221,14.8221,0,0,1,7.41,1.95,15.0612,15.0612,0,0,1,5.55,5.43,15.8993,15.8993,0,0,1,2.22,7.92Zm-19.7695-9.66a6.69,6.69,0,0,0-2.79,4.08h14.46a7.4172,7.4172,0,0,0-2.67-4.1406,7.2877,7.2877,0,0,0-4.41-1.3789A8.0345,8.0345,0,0,0,379.6426,661.7326Z"/><path class="cls-1" d="M448.8223,654.922a11.41,11.41,0,0,1,4.26,4.291,12.3933,12.3933,0,0,1,1.59,6.3v18.72h-7.86v-17.1a6.5663,6.5663,0,0,0-1.68-4.711,5.5545,5.5545,0,0,0-4.2-1.7695,6.1911,6.1911,0,0,0-5.1,2.31q-1.86,2.31-1.86,6.8692v14.4h-7.92v-17.1a6.5668,6.5668,0,0,0-1.68-4.711,5.556,5.556,0,0,0-4.2-1.7695,6.0581,6.0581,0,0,0-5.04,2.28q-1.8,2.2807-1.8,6.8994v14.4h-7.92v-29.94h7.92v2.459a12.0838,12.0838,0,0,1,8.94-3.3594,12.4327,12.4327,0,0,1,5.6406,1.29,11.02,11.02,0,0,1,4.2,3.63,13.2727,13.2727,0,0,1,4.6494-3.63,14.5075,14.5075,0,0,1,6.27-1.29A11.4557,11.4557,0,0,1,448.8223,654.922Z"/><path class="cls-1" d="M484.0723,682.9122a21.6193,21.6193,0,0,1-4.08,1.71,13.5888,13.5888,0,0,1-3.7207.5108q-5.5211,0-8.64-2.9708-3.12-2.9691-3.12-8.97v-12.42h-6.42v-6.48h6.42v-9.06h7.92v9.06h9.78v6.48h-9.78v11.82a5.5788,5.5788,0,0,0,1.17,3.8994,4.1653,4.1653,0,0,0,3.21,1.26,8.9849,8.9849,0,0,0,2.4-.39,12.2176,12.2176,0,0,0,2.58-1.05Z"/><path class="cls-1" d="M509.0908,654.1124l-.42,7.62h-1.74q-10.68,0-10.68,12.84v9.66h-7.92v-29.94h7.92v5.459q4.08-5.8785,10.74-5.88A7.0391,7.0391,0,0,1,509.0908,654.1124Z"/><path class="cls-1" d="M561.23,671.9923H538.55a8.6226,8.6226,0,0,0,2.79,4.71,7.63,7.63,0,0,0,5.01,1.65,9.3,9.3,0,0,0,3.8106-.84,6.9021,6.9021,0,0,0,3.1494-3.06l7.08,1.5a11.9045,11.9045,0,0,1-5.16,6.66,17.3448,17.3448,0,0,1-15.5693,1.2305,15.0806,15.0806,0,0,1-5.1309-3.63,16.3093,16.3093,0,0,1-5.2793,3.5391,17.4587,17.4587,0,0,1-7.02,1.3809q-5.521,0-8.49-2.7305a8.9346,8.9346,0,0,1-2.97-6.87,7.9281,7.9281,0,0,1,3.21-6.69q3.2094-2.43,8.91-2.4307h8.4v-1.14a4.9327,4.9327,0,0,0-1.59-3.84,5.9774,5.9774,0,0,0-4.1709-1.4405,6.2059,6.2059,0,0,0-3.8994,1.2,4.8963,4.8963,0,0,0-1.86,3.36l-7.26-1.5a10.0239,10.0239,0,0,1,4.11-6.96,14.5463,14.5463,0,0,1,9.0293-2.7,16.7508,16.7508,0,0,1,5.7608.96,11.9509,11.9509,0,0,1,4.4394,2.76,16.6248,16.6248,0,0,1,4.68-2.7294,14.9376,14.9376,0,0,1,5.4-.99,15.1342,15.1342,0,0,1,7.65,2.01,14.8356,14.8356,0,0,1,5.58,5.6406,16.3575,16.3575,0,0,1,2.0693,8.25Zm-29.94,0h-8.4a5.6206,5.6206,0,0,0-3.39.87,2.7968,2.7968,0,0,0-1.17,2.37,3.0855,3.0855,0,0,0,1.35,2.61,5.7973,5.7973,0,0,0,3.51.9893,9.1,9.1,0,0,0,3.9-.8692,8.5991,8.5991,0,0,0,3.03-2.28,4.5916,4.5916,0,0,0,1.17-2.97Zm21.96-5.58a8.0876,8.0876,0,0,0-2.58-4.7695,6.761,6.761,0,0,0-4.44-1.59,8.0941,8.0941,0,0,0-4.95,1.68,7.1883,7.1883,0,0,0-2.79,4.68Z"/><path class="cls-1" d="M598.85,684.2326H588.2891l-10.8594-11.7h-2.28v11.7h-7.92v-43.2h7.92v23.7h2.22l9.96-10.44h9.96l-14.46,14.34Z"/></g><g id="Outlinet_ikoner" data-name="Outlinet ikoner"><polyline class="cls-2" points="259.093 483.368 259.093 120.486 560.907 120.486 560.907 483.368"/><polyline class="cls-3" points="299.053 158.826 485.598 210.4 485.598 483.368"/><line class="cls-3" x1="485.5982" y1="352.3233" x2="299.0533" y2="352.3233"/><line class="cls-3" x1="388.2848" y1="185.7323" x2="388.2848" y2="483.3684"/></g></svg>