<svg xmlns="http://www.w3.org/2000/svg" width="820" height="820" viewBox="0 0 820 820"><defs><style>.cls-1{fill:#00415a;}.cls-2{fill:#64b4dc;}.cls-3{fill:#005f87;}</style></defs><g id="Outlinet_Tekst_DK_09.09.21"><path class="cls-1" d="M209.8994,572.0294l-17.34,40.1993H184.7l-17.3408-40.1993h9l12.24,29.2793,12.3-29.2793Z"/><path class="cls-1" d="M241.22,582.2892v29.9395H233.3v-2.34a15.2726,15.2726,0,0,1-9.9,3.24,13.9455,13.9455,0,0,1-7.2305-2.01,14.8706,14.8706,0,0,1-5.43-5.6406,17.4575,17.4575,0,0,1,0-16.379,15.1112,15.1112,0,0,1,5.43-5.6708,13.7953,13.7953,0,0,1,7.2305-2.04,14.9485,14.9485,0,0,1,9.9,3.3008v-2.4Zm-12.3008,22.83a8.4372,8.4372,0,0,0,3.1807-3.15,9.0538,9.0538,0,0,0,1.2-4.68,9.22,9.22,0,0,0-1.2-4.71,8.4856,8.4856,0,0,0-7.32-4.29,8.0135,8.0135,0,0,0-6.03,2.46,9.0293,9.0293,0,0,0-2.3691,6.54,8.9211,8.9211,0,0,0,2.3691,6.51,8.062,8.062,0,0,0,6.03,2.43A8.342,8.342,0,0,0,228.9189,605.1193Z"/><path class="cls-1" d="M257.0293,605.8087a8.32,8.32,0,0,0,4.23.961,6.08,6.08,0,0,0,3.42-.8408,2.5112,2.5112,0,0,0,1.26-2.1592q0-1.98-3.3-2.7l-6.12-1.2608a11.9411,11.9411,0,0,1-6.27-3.06,7.47,7.47,0,0,1-2.19-5.46,9.0354,9.0354,0,0,1,1.5-5.13,9.9233,9.9233,0,0,1,4.2607-3.5107,15.4731,15.4731,0,0,1,6.48-1.26,14.8382,14.8382,0,0,1,8.73,2.4609,9.9939,9.9939,0,0,1,4.29,6.42l-7.56,1.5a4.2926,4.2926,0,0,0-1.7695-3,6.41,6.41,0,0,0-3.9307-1.1407,4.5851,4.5851,0,0,0-3.12.87,2.705,2.705,0,0,0-.96,2.07,2.2767,2.2767,0,0,0,.54,1.53,4.0124,4.0124,0,0,0,2.16.9893l7.1406,1.56a10.6416,10.6416,0,0,1,5.85,3.0908,7.7881,7.7881,0,0,1,2.01,5.37,8.6157,8.6157,0,0,1-3.5693,7.4395q-3.5713,2.58-9.57,2.58a17.9094,17.9094,0,0,1-9.12-2.1894,8.4357,8.4357,0,0,1-4.32-6.6309l7.9805-1.6191A4.0114,4.0114,0,0,0,257.0293,605.8087Z"/><path class="cls-1" d="M311.4189,612.2287h-10.56L289.999,600.5294h-2.28v11.6993h-7.92V569.0294h7.92v23.6993h2.22l9.96-10.4395h9.96l-14.46,14.34Z"/><path class="cls-1" d="M353.8076,582.9787a10.8644,10.8644,0,0,1,4.2305,4.4707,13.9606,13.9606,0,0,1,1.5,6.54v18.2393h-7.92v-16.56a7.5557,7.5557,0,0,0-1.65-5.1,5.5229,5.5229,0,0,0-4.41-1.9209,6.5385,6.5385,0,0,0-5.4892,2.52q-1.9512,2.5209-1.95,7.8v13.26h-7.92V569.0294h7.92v15.96a12.737,12.737,0,0,1,9.42-3.6006A12.242,12.242,0,0,1,353.8076,582.9787Z"/><path class="cls-1" d="M415.2178,599.9894h-22.68a8.6233,8.6233,0,0,0,2.79,4.71,7.63,7.63,0,0,0,5.01,1.65,9.3007,9.3007,0,0,0,3.81-.8408,6.9,6.9,0,0,0,3.15-3.06l7.08,1.5a11.9111,11.9111,0,0,1-5.16,6.66,16.3254,16.3254,0,0,1-9.06,2.5195,16.1553,16.1553,0,0,1-6.51-1.29,15.0553,15.0553,0,0,1-5.1308-3.63,16.3272,16.3272,0,0,1-5.2793,3.54,17.4586,17.4586,0,0,1-7.02,1.38q-5.5211,0-8.49-2.73a8.934,8.934,0,0,1-2.97-6.8692,7.93,7.93,0,0,1,3.21-6.69q3.2094-2.43,8.91-2.43h8.4v-1.14a4.9348,4.9348,0,0,0-1.59-3.8408,5.9769,5.9769,0,0,0-4.1709-1.4395,6.2059,6.2059,0,0,0-3.8994,1.2,4.8958,4.8958,0,0,0-1.86,3.3594l-7.26-1.5a10.024,10.024,0,0,1,4.11-6.96,14.5461,14.5461,0,0,1,9.0293-2.7,16.7523,16.7523,0,0,1,5.7607.9609,11.952,11.952,0,0,1,4.44,2.76,16.6066,16.6066,0,0,1,4.68-2.7305,14.94,14.94,0,0,1,5.4-.99,15.1448,15.1448,0,0,1,7.65,2.01,14.8416,14.8416,0,0,1,5.58,5.6406,16.3592,16.3592,0,0,1,2.0694,8.25Zm-29.94,0h-8.4a5.6137,5.6137,0,0,0-3.39.87,2.795,2.795,0,0,0-1.17,2.3692,3.0855,3.0855,0,0,0,1.35,2.61,5.7907,5.7907,0,0,0,3.51.99,9.1012,9.1012,0,0,0,3.9-.87,8.5885,8.5885,0,0,0,3.03-2.28,4.5878,4.5878,0,0,0,1.17-2.97Zm21.96-5.58a8.0874,8.0874,0,0,0-2.58-4.7705,6.7665,6.7665,0,0,0-4.44-1.59,8.0941,8.0941,0,0,0-4.95,1.68,7.1908,7.1908,0,0,0-2.79,4.6806Z"/><path class="cls-1" d="M444.8271,582.9787a10.8637,10.8637,0,0,1,4.2305,4.4707,13.9606,13.9606,0,0,1,1.5,6.54v18.2393h-7.92v-16.56a7.5557,7.5557,0,0,0-1.65-5.1,5.5229,5.5229,0,0,0-4.41-1.9209,6.5385,6.5385,0,0,0-5.4892,2.52q-1.9512,2.5209-1.95,7.8v13.26h-7.92V582.2892h7.92v2.7a12.737,12.737,0,0,1,9.42-3.6006A12.242,12.242,0,0,1,444.8271,582.9787Z"/><path class="cls-1" d="M488.2979,569.0294v43.1993h-7.92v-2.34a15.2722,15.2722,0,0,1-9.9,3.24,13.9449,13.9449,0,0,1-7.23-2.01,14.8708,14.8708,0,0,1-5.43-5.6406,17.4575,17.4575,0,0,1,0-16.379,15.1115,15.1115,0,0,1,5.43-5.6708,13.7947,13.7947,0,0,1,7.23-2.04,14.9485,14.9485,0,0,1,9.9,3.3008v-15.66Zm-12.3008,36.09a8.437,8.437,0,0,0,3.1806-3.15,9.0538,9.0538,0,0,0,1.2-4.68,9.22,9.22,0,0,0-1.2-4.71,8.4853,8.4853,0,0,0-7.32-4.29,8.0135,8.0135,0,0,0-6.03,2.46,9.03,9.03,0,0,0-2.3691,6.54,8.9215,8.9215,0,0,0,2.3691,6.51,8.062,8.062,0,0,0,6.03,2.43A8.3424,8.3424,0,0,0,475.9971,605.1193Z"/><path class="cls-1" d="M524.957,599.3888h-22.8a8.8513,8.8513,0,0,0,2.67,5.07,6.9383,6.9383,0,0,0,4.83,1.8906,10.98,10.98,0,0,0,4.14-.75,7.1088,7.1088,0,0,0,3.3-3.2109l7.08,1.5a14.4089,14.4089,0,0,1-5.6993,6.9,16.4114,16.4114,0,0,1-8.82,2.34,15.2415,15.2415,0,0,1-7.71-2.01,14.8777,14.8777,0,0,1-5.58-5.61,16.19,16.19,0,0,1-2.07-8.22,16.36,16.36,0,0,1,2.07-8.25,14.7613,14.7613,0,0,1,5.61-5.6406,15.5283,15.5283,0,0,1,7.8-2.01,14.8221,14.8221,0,0,1,7.41,1.95,15.064,15.064,0,0,1,5.55,5.4307,15.899,15.899,0,0,1,2.22,7.92Zm-19.7695-9.66a6.6925,6.6925,0,0,0-2.79,4.08h14.46a7.4174,7.4174,0,0,0-2.67-4.14,7.2817,7.2817,0,0,0-4.41-1.38A8.042,8.042,0,0,0,505.1875,589.7287Z"/><path class="cls-1" d="M551.7168,582.11l-.42,7.6192h-1.74q-10.68,0-10.68,12.8408v9.6592h-7.92V582.2892h7.92v5.46q4.08-5.88,10.74-5.88A7.0066,7.0066,0,0,1,551.7168,582.11Z"/><path class="cls-1" d="M593.0566,610.9093a21.6226,21.6226,0,0,1-4.08,1.71,13.5925,13.5925,0,0,1-3.7207.51q-5.521,0-8.64-2.97-3.12-2.9706-3.12-8.97V588.77h-6.42v-6.48h6.42v-9.0605h7.92v9.0605h9.78v6.48h-9.78V600.589a5.5834,5.5834,0,0,0,1.17,3.9,4.1659,4.1659,0,0,0,3.21,1.26,9.0253,9.0253,0,0,0,2.4-.39,12.1779,12.1779,0,0,0,2.58-1.0508Z"/><path class="cls-1" d="M605.1152,570.02a4.6012,4.6012,0,0,1,1.38,3.33,4.3745,4.3745,0,0,1-1.38,3.2989,5.1286,5.1286,0,0,1-6.87,0,4.4246,4.4246,0,0,1-1.35-3.2989,4.8154,4.8154,0,0,1,8.22-3.33Zm.54,42.209h-7.92V582.2892h7.92Z"/><path class="cls-1" d="M636.2559,610.9093a21.626,21.626,0,0,1-4.08,1.71,13.592,13.592,0,0,1-3.7207.51q-5.521,0-8.64-2.97t-3.12-8.97V588.77h-6.42v-6.48h6.42v-9.0605h7.92v9.0605h9.78v6.48h-9.78V600.589a5.5834,5.5834,0,0,0,1.17,3.9,4.1657,4.1657,0,0,0,3.21,1.26,9.0253,9.0253,0,0,0,2.4-.39,12.1779,12.1779,0,0,0,2.58-1.0508Z"/><path class="cls-1" d="M644.6543,620.1486h-5.94l3.6006-16.0791h9.12v.18Z"/><path class="cls-1" d="M150.7109,671.3888h-22.8a8.8508,8.8508,0,0,0,2.67,5.07,6.9379,6.9379,0,0,0,4.83,1.8906,10.98,10.98,0,0,0,4.14-.75,7.1088,7.1088,0,0,0,3.3-3.2109l7.08,1.5a14.4089,14.4089,0,0,1-5.6993,6.9,16.4114,16.4114,0,0,1-8.82,2.34,15.2418,15.2418,0,0,1-7.71-2.01,14.8777,14.8777,0,0,1-5.58-5.61,16.19,16.19,0,0,1-2.07-8.22,16.36,16.36,0,0,1,2.07-8.25,14.7613,14.7613,0,0,1,5.61-5.6406,15.5283,15.5283,0,0,1,7.8-2.01,14.8221,14.8221,0,0,1,7.41,1.95,15.064,15.064,0,0,1,5.55,5.4307,15.899,15.899,0,0,1,2.22,7.92Zm-19.77-9.66a6.6925,6.6925,0,0,0-2.79,4.08h14.46a7.4174,7.4174,0,0,0-2.67-4.14,7.2817,7.2817,0,0,0-4.41-1.38A8.0422,8.0422,0,0,0,130.9414,661.7287Z"/><path class="cls-1" d="M164.6309,684.2287h-7.92V641.0294h7.92Z"/><path class="cls-1" d="M180.95,684.2287h-7.92V641.0294h7.92Z"/><path class="cls-1" d="M217.6094,671.3888h-22.8a8.8507,8.8507,0,0,0,2.67,5.07,6.9381,6.9381,0,0,0,4.83,1.8906,10.9791,10.9791,0,0,0,4.14-.75,7.1079,7.1079,0,0,0,3.3-3.2109l7.08,1.5a14.4093,14.4093,0,0,1-5.6992,6.9,16.4117,16.4117,0,0,1-8.82,2.34,15.2421,15.2421,0,0,1-7.71-2.01,14.8784,14.8784,0,0,1-5.58-5.61,16.19,16.19,0,0,1-2.07-8.22,16.36,16.36,0,0,1,2.07-8.25,14.7615,14.7615,0,0,1,5.61-5.6406,15.5283,15.5283,0,0,1,7.8-2.01,14.8217,14.8217,0,0,1,7.41,1.95,15.0625,15.0625,0,0,1,5.55,5.4307,15.8991,15.8991,0,0,1,2.22,7.92Zm-19.77-9.66a6.6929,6.6929,0,0,0-2.79,4.08h14.46a7.4176,7.4176,0,0,0-2.67-4.14,7.2814,7.2814,0,0,0-4.41-1.38A8.0425,8.0425,0,0,0,197.84,661.7287Z"/><path class="cls-1" d="M244.3691,654.11l-.42,7.6192h-1.74q-10.68,0-10.68,12.8408v9.6592h-7.92V654.2892h7.92v5.46q4.08-5.88,10.74-5.88A7.0061,7.0061,0,0,1,244.3691,654.11Z"/><path class="cls-1" d="M288.9785,655.4289a15.1183,15.1183,0,0,1,5.43,5.6708,17.4582,17.4582,0,0,1,0,16.379,14.8775,14.8775,0,0,1-5.43,5.6406,13.95,13.95,0,0,1-7.2305,2.01,15.2679,15.2679,0,0,1-9.8994-3.24v2.34h-7.92V641.0294h7.92v15.66a14.9444,14.9444,0,0,1,9.8994-3.3008A13.8,13.8,0,0,1,288.9785,655.4289Zm-2.58,20.37a8.9217,8.9217,0,0,0,2.37-6.51,9.03,9.03,0,0,0-2.37-6.54,8.0146,8.0146,0,0,0-6.03-2.46,8.4825,8.4825,0,0,0-7.3194,4.29,9.2106,9.2106,0,0,0-1.2,4.71,9.0442,9.0442,0,0,0,1.2,4.68,8.5378,8.5378,0,0,0,7.3194,4.26A8.0632,8.0632,0,0,0,286.3984,675.799Z"/><path class="cls-1" d="M323.208,654.11l-.42,7.6192h-1.74q-10.68,0-10.68,12.8408v9.6592h-7.92V654.2892h7.92v5.46q4.08-5.88,10.74-5.88A7.0066,7.0066,0,0,1,323.208,654.11Z"/><path class="cls-1" d="M356.7471,654.2892v29.9395h-7.92v-2.6993a12.74,12.74,0,0,1-9.42,3.6,12.2272,12.2272,0,0,1-6.2695-1.59,10.8443,10.8443,0,0,1-4.2305-4.47,13.9518,13.9518,0,0,1-1.5-6.54v-18.24h7.92v16.56a7.55,7.55,0,0,0,1.65,5.1,5.52,5.52,0,0,0,4.41,1.92,6.5406,6.5406,0,0,0,5.4893-2.52q1.95-2.5209,1.95-7.8007v-13.26Z"/><path class="cls-1" d="M394.3672,682.85q0,6.7794-4.32,10.5293t-11.6992,3.75a21.13,21.13,0,0,1-8.8809-1.71,12.8093,12.8093,0,0,1-5.6992-4.89l6.42-4.86a13.1955,13.1955,0,0,0,3.6,3.33,9.175,9.175,0,0,0,4.5606.99,8.3,8.3,0,0,0,6.09-2.22,8.21,8.21,0,0,0,2.25-6.1211v-1.98q-3.42,2.7612-9.42,2.76a13.8845,13.8845,0,0,1-7.08-1.95,15.1518,15.1518,0,0,1-5.4-5.2793,14.154,14.154,0,0,1,0-14.6407,14.9278,14.9278,0,0,1,5.4-5.25,14.0633,14.0633,0,0,1,7.08-1.92q5.8784,0,9.42,2.76v-1.8594h7.62Zm-11.76-8.19a7.7356,7.7356,0,0,0,2.97-2.7607,7.94,7.94,0,0,0,0-8.1,7.7409,7.7409,0,0,0-2.97-2.76,8.3055,8.3055,0,0,0-3.96-.99,8.42,8.42,0,0,0-5.94,2.16,7.9678,7.9678,0,0,0,0,11.28,8.4194,8.4194,0,0,0,5.94,2.1592A8.3046,8.3046,0,0,0,382.6074,674.6593Z"/><path class="cls-1" d="M440.957,654.9787a10.8644,10.8644,0,0,1,4.2305,4.4707,13.9606,13.9606,0,0,1,1.5,6.54v18.2393h-7.92v-16.56a7.5557,7.5557,0,0,0-1.65-5.1,5.5229,5.5229,0,0,0-4.41-1.9209,6.5385,6.5385,0,0,0-5.4892,2.52q-1.9512,2.5209-1.95,7.8v13.26h-7.92V641.0294h7.92v15.96a12.737,12.737,0,0,1,9.42-3.6006A12.242,12.242,0,0,1,440.957,654.9787Z"/><path class="cls-1" d="M484.4277,654.2892v29.9395h-7.92v-2.34a15.2726,15.2726,0,0,1-9.9,3.24,13.9449,13.9449,0,0,1-7.23-2.01,14.87,14.87,0,0,1-5.43-5.6406,17.4575,17.4575,0,0,1,0-16.379,15.1107,15.1107,0,0,1,5.43-5.6708,13.7947,13.7947,0,0,1,7.23-2.04,14.9485,14.9485,0,0,1,9.9,3.3008v-2.4Zm-12.3007,22.83a8.4377,8.4377,0,0,0,3.1806-3.15,9.0538,9.0538,0,0,0,1.2-4.68,9.22,9.22,0,0,0-1.2-4.71,8.4853,8.4853,0,0,0-7.32-4.29,8.0135,8.0135,0,0,0-6.03,2.46,9.03,9.03,0,0,0-2.3691,6.54,8.9215,8.9215,0,0,0,2.3691,6.51,8.062,8.062,0,0,0,6.03,2.43A8.3426,8.3426,0,0,0,472.127,677.1193Zm1.7109-27.54a7.4005,7.4005,0,0,1-10.1406,0,6.81,6.81,0,0,1,0-9.78,7.4005,7.4005,0,0,1,10.1406,0,6.8127,6.8127,0,0,1,0,9.78Zm-3.27-6.6005a2.6938,2.6938,0,0,0-3.6,0,2.3889,2.3889,0,0,0,0,3.42,2.6911,2.6911,0,0,0,3.6,0,2.3912,2.3912,0,0,0,0-3.42Z"/><path class="cls-1" d="M516.4365,654.9787a10.8644,10.8644,0,0,1,4.2305,4.4707,13.9606,13.9606,0,0,1,1.5,6.54v18.2393h-7.92v-16.56a7.5557,7.5557,0,0,0-1.65-5.1,5.5229,5.5229,0,0,0-4.41-1.9209,6.5385,6.5385,0,0,0-5.4892,2.52q-1.9512,2.5209-1.95,7.8v13.26h-7.92V654.2892h7.92v2.7a12.737,12.737,0,0,1,9.42-3.6006A12.242,12.242,0,0,1,516.4365,654.9787Z"/><path class="cls-1" d="M559.9072,641.0294v43.1993h-7.92v-2.34a15.2726,15.2726,0,0,1-9.9,3.24,13.9455,13.9455,0,0,1-7.2305-2.01,14.8706,14.8706,0,0,1-5.43-5.6406,17.4575,17.4575,0,0,1,0-16.379,15.1112,15.1112,0,0,1,5.43-5.6708,13.7953,13.7953,0,0,1,7.2305-2.04,14.9485,14.9485,0,0,1,9.9,3.3008v-15.66Zm-12.3008,36.09a8.4372,8.4372,0,0,0,3.1807-3.15,9.0538,9.0538,0,0,0,1.2-4.68,9.22,9.22,0,0,0-1.2-4.71,8.4856,8.4856,0,0,0-7.32-4.29,8.0135,8.0135,0,0,0-6.03,2.46,9.0293,9.0293,0,0,0-2.3691,6.54,8.9211,8.9211,0,0,0,2.3691,6.51,8.062,8.062,0,0,0,6.03,2.43A8.342,8.342,0,0,0,547.6064,677.1193Z"/><path class="cls-1" d="M575.7168,677.8087a8.32,8.32,0,0,0,4.2295.961,6.08,6.08,0,0,0,3.42-.8408,2.5112,2.5112,0,0,0,1.26-2.1592q0-1.98-3.3-2.7l-6.12-1.2608a11.9411,11.9411,0,0,1-6.27-3.06,7.47,7.47,0,0,1-2.19-5.46,9.0354,9.0354,0,0,1,1.5-5.13,9.9233,9.9233,0,0,1,4.2607-3.5107,15.4731,15.4731,0,0,1,6.48-1.26,14.8382,14.8382,0,0,1,8.7305,2.4609,9.9939,9.9939,0,0,1,4.29,6.42l-7.5605,1.5a4.2926,4.2926,0,0,0-1.7695-3,6.41,6.41,0,0,0-3.9307-1.1407,4.5851,4.5851,0,0,0-3.12.87,2.705,2.705,0,0,0-.96,2.07,2.2767,2.2767,0,0,0,.54,1.53,4.0124,4.0124,0,0,0,2.16.9893l7.1406,1.56a10.6416,10.6416,0,0,1,5.85,3.0908,7.7881,7.7881,0,0,1,2.01,5.37,8.6157,8.6157,0,0,1-3.5693,7.4395q-3.5713,2.58-9.57,2.58a17.9094,17.9094,0,0,1-9.12-2.1894,8.4357,8.4357,0,0,1-4.32-6.6309l7.9805-1.6191A4.0114,4.0114,0,0,0,575.7168,677.8087Z"/><path class="cls-1" d="M623.5361,655.4289a15.1183,15.1183,0,0,1,5.43,5.6708,17.4575,17.4575,0,0,1,0,16.379,14.8775,14.8775,0,0,1-5.43,5.6406,13.95,13.95,0,0,1-7.23,2.01,15.268,15.268,0,0,1-9.8995-3.24v14.34h-7.92V654.2892h7.92v2.4a14.9444,14.9444,0,0,1,9.8995-3.3008A13.8,13.8,0,0,1,623.5361,655.4289Zm-2.58,20.37a8.9221,8.9221,0,0,0,2.37-6.51,9.03,9.03,0,0,0-2.37-6.54,8.015,8.015,0,0,0-6.03-2.46,8.4825,8.4825,0,0,0-7.3194,4.29,9.2116,9.2116,0,0,0-1.2,4.71,9.0452,9.0452,0,0,0,1.2,4.68,8.5378,8.5378,0,0,0,7.3194,4.26A8.0636,8.0636,0,0,0,620.9561,675.799Z"/><path class="cls-1" d="M657.7656,654.11l-.42,7.6192h-1.74q-10.68,0-10.68,12.8408v9.6592h-7.92V654.2892h7.92v5.46q4.08-5.88,10.74-5.88A7.0061,7.0061,0,0,1,657.7656,654.11Z"/><path class="cls-1" d="M670.5449,642.02a4.6016,4.6016,0,0,1,1.38,3.33,4.3749,4.3749,0,0,1-1.38,3.2989,5.1286,5.1286,0,0,1-6.87,0,4.4246,4.4246,0,0,1-1.35-3.2989,4.8154,4.8154,0,0,1,8.22-3.33Zm.54,42.209h-7.92V654.2892h7.92Z"/><path class="cls-1" d="M701.6855,682.9093a21.6226,21.6226,0,0,1-4.08,1.71,13.5925,13.5925,0,0,1-3.7207.51q-5.5211,0-8.64-2.97-3.12-2.9706-3.12-8.97V660.77h-6.42v-6.48h6.42v-9.0605h7.92v9.0605h9.78v6.48h-9.78V672.589a5.5834,5.5834,0,0,0,1.17,3.9,4.1661,4.1661,0,0,0,3.21,1.26,9.0253,9.0253,0,0,0,2.4-.39,12.1779,12.1779,0,0,0,2.58-1.0508Z"/></g><g id="Outlinet_ikoner" data-name="Outlinet ikoner"><path class="cls-2" d="M543.2078,149.2713a46.0224,46.0224,0,1,0,46.0249,46.02,46.0741,46.0741,0,0,0-46.0249-46.02m0,76.8092a30.7894,30.7894,0,1,1,30.7945-30.7894,30.8263,30.8263,0,0,1-30.7945,30.7894"/><path class="cls-2" d="M510.6272,266.175a59.2535,59.2535,0,1,0,59.2535,59.2535,59.3151,59.3151,0,0,0-59.2535-59.2535m0,103.2713a44.02,44.02,0,1,1,44.023-44.0178,44.0661,44.0661,0,0,1-44.023,44.0178"/><path class="cls-2" d="M410.1993,176.4478a45.9865,45.9865,0,1,0,45.9838,45.9839,46.0368,46.0368,0,0,0-45.9838-45.9839m0,76.7373a30.7535,30.7535,0,1,1,30.7534-30.7534,30.7923,30.7923,0,0,1-30.7534,30.7534"/><path class="cls-2" d="M430.1832,141.1463a38.3816,38.3816,0,1,0-38.3765-38.3816,38.4239,38.4239,0,0,0,38.3765,38.3816m0-61.5276a23.1486,23.1486,0,1,1-23.146,23.146,23.1751,23.1751,0,0,1,23.146-23.146"/><path class="cls-3" d="M455.2869,485.0894a147.2075,147.2075,0,0,1-104.3956-43.1606L246.9987,338.0414a36.9707,36.9707,0,0,1,20.41-62.6825l-25.81-25.8a37.0019,37.0019,0,0,1,20.3843-62.703l-7.628-7.628A36.9947,36.9947,0,0,1,306.6731,126.91L341.59,161.8261l-10.7644,10.77-34.9218-34.9166a21.7641,21.7641,0,1,0-30.7843,30.774l28.5514,28.5462.2464.2465,30.82,30.82-10.7646,10.7747-31.01-31.0154a21.7631,21.7631,0,0,0-30.5943,30.9589L366.7326,353.1384,355.968,363.9132l-67.42-67.41a21.7605,21.7605,0,1,0-30.7792,30.7688L361.6609,431.1541c51.6306,51.6254,135.6315,51.6254,187.2518,0l10.77,10.7747a147.2076,147.2076,0,0,1-104.3954,43.1606"/><path class="cls-2" d="M543.2078,149.2713a46.0224,46.0224,0,1,0,46.0249,46.02,46.0741,46.0741,0,0,0-46.0249-46.02m0,76.8092a30.7894,30.7894,0,1,1,30.7945-30.7894,30.8263,30.8263,0,0,1-30.7945,30.7894"/><path class="cls-2" d="M510.6272,266.175a59.2535,59.2535,0,1,0,59.2535,59.2535,59.3151,59.3151,0,0,0-59.2535-59.2535m0,103.2713a44.02,44.02,0,1,1,44.023-44.0178,44.0661,44.0661,0,0,1-44.023,44.0178"/><path class="cls-2" d="M410.1993,176.4478a45.9865,45.9865,0,1,0,45.9838,45.9839,46.0368,46.0368,0,0,0-45.9838-45.9839m0,76.7373a30.7535,30.7535,0,1,1,30.7534-30.7534,30.7923,30.7923,0,0,1-30.7534,30.7534"/><path class="cls-2" d="M430.1832,141.1463a38.3816,38.3816,0,1,0-38.3765-38.3816,38.4239,38.4239,0,0,0,38.3765,38.3816m0-61.5276a23.1486,23.1486,0,1,1-23.146,23.146,23.1751,23.1751,0,0,1,23.146-23.146"/><path class="cls-3" d="M455.2869,485.0894a147.2075,147.2075,0,0,1-104.3956-43.1606L246.9987,338.0414a36.9707,36.9707,0,0,1,20.41-62.6825l-25.81-25.8a37.0019,37.0019,0,0,1,20.3843-62.703l-7.628-7.628A36.9947,36.9947,0,0,1,306.6731,126.91L341.59,161.8261l-10.7644,10.77-34.9218-34.9166a21.7641,21.7641,0,1,0-30.7843,30.774l28.5514,28.5462.2464.2465,30.82,30.82-10.7646,10.7747-31.01-31.0154a21.7631,21.7631,0,0,0-30.5943,30.9589L366.7326,353.1384,355.968,363.9132l-67.42-67.41a21.7605,21.7605,0,1,0-30.7792,30.7688L361.6609,431.1541c51.6306,51.6254,135.6315,51.6254,187.2518,0l10.77,10.7747a147.2076,147.2076,0,0,1-104.3954,43.1606"/></g></svg>