<svg width="239" height="120" viewBox="0 0 239 120" fill="none" xmlns="http://www.w3.org/2000/svg">
<g clip-path="url(#clip0)">
<path d="M19.4408 21.7356H15.4533L5.52004 10.354V21.7356H0.672607V2.08105H4.70267L14.6359 13.8148V2.08105H19.4607L19.4408 21.7356Z" fill="#00415A"/>
<path d="M38.1919 21.7357H33.5091V20.5603C32.3152 21.6429 30.7902 22.1842 28.9341 22.1842C27.98 22.1977 27.0338 22.0101 26.1571 21.6334C25.2803 21.2568 24.4927 20.6996 23.8455 19.9982C22.4491 18.5427 21.751 16.6699 21.751 14.3798C21.751 12.0896 22.4491 10.2225 23.8455 8.77836C24.49 8.07199 25.2765 7.51001 26.1536 7.12934C27.0306 6.74866 27.9782 6.55791 28.9341 6.5696C30.7902 6.5696 32.3152 7.10807 33.5091 8.185V7.00965H38.1919V21.7357ZM32.4363 17.1166C32.7929 16.7564 33.072 16.327 33.2565 15.8549C33.4409 15.3827 33.5269 14.8778 33.5091 14.3712C33.5242 13.8679 33.4369 13.3668 33.2525 12.8983C33.0681 12.4298 32.7904 12.0037 32.4363 11.6458C32.1117 11.2994 31.719 11.0241 31.2828 10.8369C30.8467 10.6498 30.3765 10.555 29.9019 10.5584C29.4244 10.5434 28.9492 10.6312 28.5085 10.8158C28.0678 11.0005 27.6719 11.2777 27.3477 11.6287C26.6708 12.378 26.3134 13.3621 26.3515 14.3712C26.3073 15.3864 26.6653 16.378 27.3477 17.1308C27.674 17.4782 28.0706 17.7521 28.511 17.9342C28.9514 18.1163 29.4256 18.2025 29.9019 18.1869C30.375 18.191 30.844 18.0982 31.2799 17.9141C31.7157 17.73 32.1093 17.4586 32.4363 17.1166Z" fill="#00415A"/>
<path d="M52.5072 21.0883C51.2811 21.7832 49.9005 22.16 48.4914 22.1842C46.6334 22.1842 45.1916 21.6855 44.1661 20.688C43.1407 19.6906 42.627 18.2332 42.6251 16.3159V10.7344H39.9573V7.00957H42.6251V2.6687H47.3192V7.00957H51.6587V10.7344H47.3192V15.8446C47.3192 17.2736 47.9739 17.9871 49.2832 17.9853C50.0356 17.9829 50.774 17.7811 51.4231 17.4004L52.5072 21.0883Z" fill="#00415A"/>
<path d="M58.3592 0.792203C58.6089 1.0362 58.8065 1.3283 58.9402 1.65084C59.0738 1.97338 59.1407 2.31967 59.1369 2.6688C59.1456 3.0165 59.0809 3.36214 58.9469 3.68308C58.8129 4.00403 58.6126 4.29304 58.3592 4.5312C58.1006 4.77984 57.7949 4.97424 57.46 5.10295C57.1252 5.23167 56.768 5.2921 56.4095 5.2807C56.053 5.29261 55.6978 5.23236 55.3652 5.10356C55.0326 4.97477 54.7294 4.78009 54.4739 4.5312C54.225 4.29046 54.0288 4.00058 53.8979 3.67997C53.767 3.35936 53.7041 3.01501 53.7133 2.6688C53.7241 2.13512 53.8913 1.61636 54.1942 1.1769C54.4971 0.73745 54.9224 0.396644 55.4172 0.196785C55.912 -0.0030752 56.4545 -0.0531905 56.9776 0.0526583C57.5006 0.158507 57.981 0.41566 58.3592 0.792203ZM54.0652 21.7357V7.00967H58.7566V21.7357H54.0652Z" fill="#00415A"/>
<path d="M74.596 8.79817C76.1588 10.2461 76.9402 12.1037 76.9402 14.3712C76.9402 16.6386 76.1588 18.5067 74.596 19.9754C73.0457 21.4172 70.9934 22.1956 68.8773 22.1444C66.7389 22.2015 64.6624 21.4236 63.0876 19.9754C61.5115 18.5275 60.7244 16.6594 60.7263 14.3712C60.7282 12.0829 61.5153 10.2253 63.0876 8.79817C64.6624 7.35001 66.7389 6.57207 68.8773 6.62915C70.9932 6.57922 73.045 7.35746 74.596 8.79817ZM71.3691 17.1165C71.7211 16.7538 71.9961 16.3236 72.1775 15.8518C72.3589 15.38 72.4431 14.8764 72.4249 14.3712C72.443 13.8652 72.3574 13.3609 72.1734 12.8892C71.9894 12.4176 71.7108 11.9886 71.3549 11.6287C71.0366 11.2908 70.6527 11.0216 70.2266 10.8375C69.8005 10.6535 69.3414 10.5585 68.8773 10.5584C68.4013 10.5549 67.9296 10.6479 67.4906 10.8319C67.0515 11.0158 66.6544 11.2869 66.323 11.6287C65.9635 11.9867 65.6817 12.415 65.4952 12.8869C65.3087 13.3588 65.2214 13.8641 65.2389 14.3712C65.2212 14.8775 65.3069 15.3821 65.4909 15.8542C65.6749 16.3262 65.9532 16.7558 66.3088 17.1165C66.6395 17.4593 67.0365 17.7309 67.4757 17.915C67.9149 18.099 68.387 18.1915 68.8631 18.1868C69.3321 18.1918 69.7971 18.0992 70.2285 17.915C70.6599 17.7307 71.0483 17.4588 71.3691 17.1165Z" fill="#00415A"/>
<path d="M92.3992 8.256C93.4474 9.38025 93.9706 10.8622 93.9687 12.7019V21.7357H89.3143V13.6984C89.3473 12.936 89.0965 12.1885 88.6104 11.6004C88.387 11.3389 88.1079 11.1308 87.7936 10.9913C87.4793 10.8518 87.1378 10.7844 86.7941 10.7941C86.3667 10.7738 85.9407 10.8548 85.5505 11.0304C85.1604 11.206 84.8173 11.4714 84.5491 11.8048C84.0137 12.4805 83.745 13.512 83.7431 14.8993V21.7357H79.0603V7.00966H83.7431V8.42918C84.3218 7.81786 85.0234 7.33609 85.8017 7.01557C86.58 6.69506 87.4173 6.54307 88.2585 6.56961C89.9784 6.56961 91.3586 7.13174 92.3992 8.256Z" fill="#00415A"/>
<path d="M112.331 21.7357H107.64V20.5603C106.448 21.6429 104.923 22.1842 103.065 22.1842C102.111 22.1977 101.165 22.01 100.289 21.6333C99.4127 21.2567 98.6256 20.6995 97.9789 19.9982C96.5788 18.5427 95.8797 16.6699 95.8816 14.3798C95.8835 12.0896 96.5826 10.2225 97.9789 8.77836C98.6229 8.07206 99.409 7.51011 100.286 7.12942C101.162 6.74874 102.109 6.55795 103.065 6.56959C104.923 6.56959 106.448 7.10806 107.64 8.185V7.00964H112.331V21.7357ZM106.57 17.1166C106.925 16.7558 107.204 16.3263 107.388 15.8542C107.572 15.3822 107.657 14.8776 107.64 14.3712C107.655 13.8682 107.568 13.3674 107.384 12.8989C107.2 12.4305 106.923 12.0042 106.57 11.6458C106.245 11.2994 105.852 11.024 105.416 10.8369C104.98 10.6498 104.51 10.555 104.035 10.5584C103.558 10.5437 103.083 10.6317 102.642 10.8163C102.202 11.001 101.806 11.278 101.481 11.6287C100.804 12.378 100.447 13.3621 100.485 14.3712C100.441 15.3864 100.799 16.378 101.481 17.1308C101.808 17.4781 102.204 17.7519 102.645 17.934C103.085 18.116 103.559 18.2023 104.035 18.1869C104.508 18.1908 104.977 18.0979 105.413 17.9139C105.849 17.7298 106.243 17.4585 106.57 17.1166Z" fill="#00415A"/>
<path d="M115.467 21.7357V0.607666H120.158V21.7357H115.467Z" fill="#00415A"/>
<path d="M134.468 21.0883C133.242 21.7832 131.861 22.16 130.452 22.1842C128.594 22.1842 127.152 21.6855 126.127 20.688C125.101 19.6906 124.588 18.2332 124.586 16.3159V10.7344H121.915V7.00957H124.583V2.6687H129.274V7.00957H133.617V10.7344H129.274V15.8446C129.274 17.2736 129.93 17.9871 131.241 17.9853C131.994 17.982 132.732 17.7802 133.381 17.4004L134.468 21.0883Z" fill="#00415A"/>
<path d="M12.9586 54.0634L6.53891 46.6819H5.51153V54.0634H0.672607V34.4116H5.51153V42.2133H6.21537L12.9019 34.4116H18.7086L10.3504 44.2659L19.2932 54.0634H12.9586Z" fill="#00415A"/>
<path d="M32.1951 41.1291C33.7579 42.5751 34.5394 44.4328 34.5394 46.7021C34.5394 48.9715 33.7579 50.8386 32.1951 52.3035C30.6448 53.7453 28.5925 54.5237 26.4764 54.4725C24.3371 54.5304 22.2594 53.7524 20.6839 52.3035C19.1116 50.8556 18.3254 48.9885 18.3254 46.7021C18.3254 44.4158 19.1116 42.5581 20.6839 41.1291C22.2589 39.6792 24.3367 38.9002 26.4764 38.9573C28.5929 38.9072 30.6451 39.6866 32.1951 41.1291ZM28.9682 49.439C29.6521 48.6894 30.0312 47.7112 30.0312 46.6965C30.0312 45.6817 29.6521 44.7035 28.9682 43.954C28.6502 43.6156 28.2663 43.3458 27.8403 43.1613C27.4142 42.9767 26.9549 42.8813 26.4906 42.8808C26.0143 42.8772 25.5423 42.9704 25.1032 43.1549C24.6642 43.3394 24.2671 43.6112 23.9363 43.954C23.5768 44.312 23.295 44.7403 23.1085 45.2122C22.922 45.684 22.8347 46.1893 22.8522 46.6965C22.8332 47.2015 22.9173 47.7052 23.0993 48.1767C23.2813 48.6482 23.5574 49.0777 23.9108 49.439C24.2414 49.7817 24.6385 50.0534 25.0777 50.2374C25.5168 50.4214 25.9889 50.5139 26.465 50.5093C26.9336 50.5139 27.398 50.4211 27.8289 50.2369C28.2598 50.0526 28.6477 49.7809 28.9682 49.439Z" fill="#00415A"/>
<path d="M59.7273 40.5557C60.8038 41.6591 61.3412 43.0919 61.3393 44.854V54.0638H56.6763V45.8505C56.7138 45.1215 56.4618 44.4072 55.9753 43.8632C55.7523 43.6201 55.4799 43.4275 55.1765 43.2982C54.873 43.169 54.5455 43.106 54.2157 43.1136C53.8159 43.0972 53.4177 43.1749 53.0534 43.3406C52.6891 43.5063 52.3688 43.7553 52.1184 44.0676C51.6 44.7035 51.3408 45.6271 51.3408 46.8385V54.0553H46.6494V45.8505C46.6858 45.1211 46.4328 44.4069 45.9456 43.8632C45.7182 43.6179 45.441 43.4241 45.1327 43.2949C44.8243 43.1656 44.4918 43.1038 44.1576 43.1136C43.7617 43.0962 43.3674 43.1737 43.0075 43.3396C42.6476 43.5055 42.3325 43.7551 42.0886 44.0676C41.5929 44.7035 41.3441 45.6271 41.3422 46.8385V54.0553H36.6509V39.3377H41.3422V40.6891C42.4169 39.4948 43.8634 38.8977 45.6816 38.8977C47.8537 38.8977 49.4563 39.7295 50.4893 41.3932C51.7608 39.7295 53.5015 38.8977 55.7114 38.8977C56.4591 38.8803 57.2023 39.0188 57.8936 39.3042C58.585 39.5897 59.2094 40.0158 59.7273 40.5557Z" fill="#00415A"/>
<path d="M87.3474 40.5553C88.424 41.6587 88.9613 43.0915 88.9594 44.8535V54.0633H84.2965V45.85C84.3339 45.1211 84.0819 44.4068 83.5954 43.8627C83.3724 43.6197 83.1001 43.427 82.7966 43.2978C82.4931 43.1685 82.1656 43.1056 81.8358 43.1132C81.436 43.0968 81.0378 43.1745 80.6735 43.3402C80.3092 43.5059 79.989 43.7549 79.7385 44.0671C79.2182 44.7031 78.959 45.6267 78.9609 46.838V54.0548H74.2695V45.85C74.3059 45.1207 74.0529 44.4065 73.5657 43.8627C73.3383 43.6175 73.0612 43.4237 72.7528 43.2944C72.4444 43.1652 72.1119 43.1034 71.7777 43.1132C71.3818 43.0958 70.9875 43.1732 70.6276 43.3392C70.2677 43.5051 69.9526 43.7547 69.7087 44.0671C69.213 44.7031 68.9642 45.6267 68.9623 46.838V54.0548H64.271V39.3373H68.9623V40.6887C70.0389 39.4944 71.4854 38.8973 73.3017 38.8973C75.4738 38.8973 77.0764 39.7291 78.1094 41.3928C79.3809 39.7291 81.1206 38.8973 83.3287 38.8973C84.0769 38.8795 84.8206 39.0178 85.5124 39.3032C86.2043 39.5887 86.8292 40.0151 87.3474 40.5553Z" fill="#00415A"/>
<path d="M106.553 54.0634H101.861V52.6439C101.282 53.2532 100.58 53.7328 99.8013 54.0514C99.0231 54.3699 98.1863 54.5201 97.3459 54.4921C95.626 54.4921 94.243 53.93 93.1967 52.8057C92.1503 51.6815 91.6272 50.2005 91.6272 48.3627V39.3374H96.2902V47.3747C96.2552 48.1373 96.5062 48.8855 96.994 49.4727C97.2172 49.7345 97.4962 49.9428 97.8106 50.0823C98.125 50.2219 98.4666 50.2891 98.8104 50.279C99.2377 50.2993 99.6638 50.2183 100.054 50.0427C100.444 49.8671 100.787 49.6017 101.055 49.2683C101.591 48.5926 101.859 47.5611 101.861 46.1738V39.3374H106.553V54.0634Z" fill="#00415A"/>
<path d="M122.724 40.5839C123.768 41.7082 124.291 43.1902 124.291 45.0299V54.0636H119.628V46.032C119.662 45.27 119.412 44.5225 118.927 43.934C118.703 43.6725 118.423 43.4644 118.108 43.3249C117.794 43.1854 117.452 43.118 117.107 43.1277C116.68 43.1071 116.254 43.1882 115.864 43.3644C115.475 43.5406 115.132 43.8068 114.865 44.1412C114.326 44.815 114.057 45.8466 114.057 47.2358V54.0693H109.365V39.3376H114.057V40.7571C114.637 40.1475 115.339 39.6676 116.118 39.3491C116.897 39.0305 117.734 38.8805 118.575 38.9089C120.295 38.9013 121.678 39.4597 122.724 40.5839Z" fill="#00415A"/>
<path d="M131.752 33.1201C132.002 33.3641 132.199 33.6562 132.333 33.9787C132.467 34.3013 132.534 34.6475 132.53 34.9967C132.538 35.3444 132.474 35.69 132.34 36.011C132.206 36.3319 132.005 36.6209 131.752 36.8591C131.493 37.1077 131.188 37.3021 130.853 37.4308C130.518 37.5595 130.161 37.62 129.802 37.6086C129.446 37.6202 129.091 37.5598 128.758 37.431C128.426 37.3022 128.122 37.1077 127.867 36.8591C127.618 36.6183 127.422 36.3285 127.291 36.0079C127.16 35.6872 127.097 35.3429 127.106 34.9967C127.117 34.463 127.284 33.9442 127.587 33.5048C127.89 33.0653 128.315 32.7245 128.81 32.5247C129.305 32.3248 129.847 32.2747 130.37 32.3805C130.893 32.4864 131.374 32.7435 131.752 33.1201ZM127.458 54.0636V39.3375H132.149V54.0636H127.458Z" fill="#00415A"/>
<path d="M145.843 54.0634L141.064 48.7544H140.212V54.0634H135.521V32.9438H140.212V44.3539H140.857L145.52 39.3373H151.179L144.728 46.3497L151.854 54.0634H145.843Z" fill="#00415A"/>
<path d="M167.608 54.0634H162.906V52.8909C161.714 53.9641 160.19 54.5016 158.333 54.5035C157.379 54.517 156.433 54.3293 155.556 53.9526C154.68 53.576 153.892 53.0188 153.245 52.3174C151.847 50.8619 151.147 48.9901 151.147 46.7018C151.147 44.4136 151.847 42.5455 153.245 41.0976C153.89 40.3928 154.677 39.8324 155.554 39.4532C156.431 39.074 157.378 38.8846 158.333 38.8973C160.19 38.8973 161.714 39.4358 162.906 40.5127V39.3374H167.608V54.0634ZM161.836 49.4386C162.523 48.6938 162.905 47.7172 162.905 46.7032C162.905 45.6893 162.523 44.7126 161.836 43.9678C161.511 43.6215 161.118 43.3461 160.682 43.159C160.246 42.9719 159.776 42.877 159.301 42.8805C158.823 42.8654 158.348 42.9535 157.907 43.1387C157.466 43.3238 157.071 43.6018 156.747 43.9536C156.104 44.7253 155.751 45.6984 155.751 46.7032C155.751 47.7081 156.104 48.6812 156.747 49.4528C157.073 49.8003 157.47 50.0742 157.91 50.2563C158.351 50.4384 158.825 50.5245 159.301 50.509C159.774 50.5131 160.243 50.4202 160.679 50.2362C161.115 50.0521 161.509 49.7807 161.836 49.4386Z" fill="#00415A"/>
<path d="M181.906 53.4134C180.679 54.1032 179.298 54.476 177.891 54.4979C176.031 54.4979 174.589 53.9991 173.565 53.0017C172.542 52.0042 172.028 50.5469 172.024 48.6296V43.0623H169.356V39.3375H172.024V34.9966H176.716V39.3375H181.058V43.0623H176.716V48.1725C176.716 49.5996 177.371 50.3131 178.682 50.3131C179.435 50.3108 180.173 50.109 180.822 49.7283L181.906 53.4134Z" fill="#00415A"/>
<path d="M187.903 33.1202C188.152 33.3646 188.35 33.6568 188.483 33.9792C188.617 34.3017 188.684 34.6478 188.681 34.9968C188.689 35.3444 188.624 35.6898 188.49 36.0107C188.356 36.3315 188.156 36.6206 187.903 36.8592C187.644 37.1073 187.338 37.3014 187.004 37.4301C186.669 37.5587 186.312 37.6195 185.953 37.6087C185.597 37.6208 185.242 37.5606 184.909 37.4318C184.576 37.303 184.273 37.1082 184.018 36.8592C183.769 36.6186 183.572 36.3288 183.441 36.0082C183.309 35.6876 183.246 35.3432 183.254 34.9968C183.266 34.4632 183.434 33.9446 183.737 33.5054C184.04 33.0662 184.466 32.7256 184.961 32.5259C185.455 32.3261 185.998 32.276 186.521 32.3816C187.044 32.4872 187.525 32.7441 187.903 33.1202ZM183.606 54.0637V39.3377H188.298V54.0637H183.606Z" fill="#00415A"/>
<path d="M204.137 41.1291C205.7 42.5751 206.482 44.4327 206.484 46.7021C206.486 48.9714 205.704 50.8385 204.137 52.3035C202.587 53.7458 200.535 54.5242 198.418 54.4725C196.28 54.5296 194.203 53.7516 192.629 52.3035C191.056 50.8556 190.269 48.9884 190.267 46.7021C190.265 44.4157 191.053 42.558 192.629 41.1291C194.203 39.6799 196.28 38.9009 198.418 38.9572C200.535 38.9065 202.587 39.686 204.137 41.1291ZM200.913 49.4389C201.595 48.6876 201.971 47.7084 201.969 46.6936C201.966 45.6788 201.585 44.7017 200.899 43.9539C200.58 43.6152 200.196 43.3452 199.769 43.1607C199.343 42.9761 198.883 42.8808 198.418 42.8807C197.942 42.8768 197.47 42.9699 197.031 43.1544C196.592 43.3389 196.195 43.6109 195.864 43.9539C195.504 44.3117 195.222 44.7399 195.035 45.2118C194.848 45.6837 194.76 46.1891 194.777 46.6964C194.76 47.2023 194.845 47.7064 195.029 48.178C195.213 48.6495 195.492 49.0786 195.847 49.4389C196.178 49.7814 196.575 50.0529 197.014 50.2369C197.453 50.4209 197.925 50.5135 198.401 50.5092C198.871 50.5138 199.337 50.421 199.769 50.2368C200.201 50.0526 200.591 49.781 200.913 49.4389Z" fill="#00415A"/>
<path d="M221.952 40.584C222.996 41.7083 223.518 43.1903 223.518 45.03V54.0637H218.858V46.0321C218.891 45.2697 218.64 44.5222 218.154 43.9341C217.93 43.6726 217.651 43.4645 217.336 43.325C217.021 43.1855 216.679 43.1181 216.335 43.1278C215.908 43.1074 215.482 43.1886 215.092 43.3648C214.702 43.541 214.36 43.8071 214.093 44.1413C213.554 44.8151 213.285 45.8466 213.287 47.2359V54.0694H208.593V39.3377H213.301V40.7572C214.472 39.5251 215.977 38.909 217.817 38.909C219.527 38.9014 220.905 39.4598 221.952 40.584Z" fill="#00415A"/>
<path d="M229.969 49.2824C230.159 50.4351 231.029 51.0114 232.58 51.0114C233.067 51.0371 233.55 50.9207 233.971 50.6764C234.124 50.5925 234.253 50.4695 234.343 50.3199C234.433 50.1703 234.482 49.9994 234.485 49.8247C234.485 49.2758 233.997 48.9143 233.02 48.7402L230.029 48.1525C227.174 47.6244 225.746 46.1973 225.746 43.8712C225.726 43.1703 225.876 42.4749 226.182 41.8442C226.489 41.2135 226.943 40.6661 227.506 40.2486C228.677 39.3401 230.202 38.8849 232.081 38.8831C233.88 38.8831 235.371 39.2616 236.554 40.0187C237.11 40.3578 237.593 40.8052 237.973 41.3343C238.353 41.8634 238.623 42.4635 238.767 43.099L234.485 43.9507C234.444 43.704 234.353 43.4679 234.22 43.2563C234.086 43.0448 233.912 42.862 233.707 42.7186C233.216 42.37 232.623 42.1943 232.021 42.2189C231.57 42.1806 231.12 42.3 230.747 42.5568C230.624 42.6523 230.524 42.7745 230.456 42.9141C230.387 43.0538 230.351 43.2073 230.35 43.363C230.35 43.8911 230.721 44.2337 231.465 44.3908L234.925 45.0948C236.274 45.3863 237.291 45.9191 237.976 46.6932C238.664 47.4755 239.031 48.4902 239 49.5323C239 51.1164 238.384 52.3382 237.153 53.1974C235.921 54.0567 234.313 54.4873 232.328 54.4892C230.47 54.4892 228.911 54.1324 227.651 53.4189C227.05 53.0975 226.534 52.639 226.144 52.0806C225.754 51.5222 225.501 50.8796 225.406 50.2051L229.969 49.2824Z" fill="#00415A"/>
<path d="M10.3504 66.7397C12.5585 66.7397 14.3124 67.3605 15.6122 68.6021C16.9121 69.8438 17.5629 71.4809 17.5648 73.5137C17.5648 75.5862 16.895 77.2489 15.5555 78.5018C14.2159 79.7548 12.4128 80.3822 10.1461 80.3841H5.51152V86.3972H0.672607V66.7397H10.3504ZM9.78283 76.33C10.5892 76.375 11.382 76.1076 11.9965 75.5833C12.269 75.326 12.4831 75.0131 12.6241 74.6658C12.7651 74.3185 12.8298 73.945 12.8139 73.5705C12.8262 73.2054 12.7593 72.8419 12.6177 72.5052C12.4761 72.1685 12.2632 71.8665 11.9937 71.62C11.3832 71.0982 10.5962 70.83 9.79418 70.8705H5.51152V76.3271L9.78283 76.33Z" fill="#00415A"/>
<path d="M34.8858 86.3917H30.1944V85.2107C29.0024 86.2876 27.4774 86.8251 25.6195 86.8232C24.6662 86.8374 23.7207 86.6506 22.8444 86.2749C21.9681 85.8992 21.1808 85.3431 20.5336 84.6429C19.1335 83.1874 18.4344 81.3155 18.4363 79.0273C18.4382 76.739 19.1373 74.8709 20.5336 73.423C21.1783 72.7183 21.9648 72.1579 22.8413 71.7787C23.7178 71.3995 24.6646 71.21 25.6195 71.2228C27.4793 71.2228 29.0043 71.7612 30.1944 72.8382V71.6628H34.8858V86.3917ZM29.1245 81.7726C29.8122 81.0278 30.1941 80.0511 30.1941 79.0372C30.1941 78.0233 29.8122 77.0466 29.1245 76.3018C28.7993 75.9556 28.406 75.6805 27.9693 75.4939C27.5327 75.3072 27.0621 75.2131 26.5872 75.2173C26.1096 75.2019 25.6343 75.2895 25.1936 75.4741C24.7528 75.6588 24.357 75.9363 24.033 76.2876C23.3895 77.0593 23.0371 78.0323 23.0371 79.0372C23.0371 80.0421 23.3895 81.0151 24.033 81.7868C24.3594 82.1341 24.756 82.4079 25.1964 82.59C25.6368 82.7721 26.1109 82.8583 26.5872 82.8429C27.0608 82.8473 27.5302 82.7545 27.9666 82.5704C28.403 82.3864 28.797 82.1148 29.1245 81.7726Z" fill="#00415A"/>
<path d="M48.7836 71.5831L48.5793 76.2788H47.7278C44.3486 76.2788 42.6581 78.1166 42.6562 81.7922V86.3971H37.9648V71.6654H42.6562V74.4817C43.869 72.4698 45.5595 71.4629 47.7278 71.461C48.0834 71.4592 48.4378 71.5002 48.7836 71.5831Z" fill="#00415A"/>
<path d="M61.9778 85.7469C60.7507 86.4381 59.3701 86.8109 57.9619 86.8314C56.1039 86.8314 54.6622 86.3327 53.6367 85.3352C52.6112 84.3378 52.0985 82.8814 52.0985 80.966V75.393H49.4307V71.6653H52.0985V67.3245H56.7898V71.6653H61.132V75.393H56.7898V80.5032C56.7898 81.9322 57.4454 82.6467 58.7566 82.6467C59.5093 82.6435 60.2477 82.4407 60.8965 82.059L61.9778 85.7469Z" fill="#00415A"/>
<path d="M76.7899 72.9148C77.8343 74.039 78.3565 75.52 78.3565 77.3578V86.3916H73.7077V78.3543C73.7408 77.592 73.49 76.8444 73.0039 76.2563C72.7799 75.9948 72.5003 75.7867 72.1855 75.6472C71.8708 75.5077 71.5288 75.4403 71.1847 75.45C70.7575 75.4296 70.3315 75.5108 69.9418 75.687C69.552 75.8632 69.2096 76.1293 68.9426 76.4635C68.4034 77.1373 68.1347 78.1688 68.1366 79.5581V86.3916H63.4509V71.6656H68.1423V73.0851C69.3134 71.853 70.8186 71.2369 72.6576 71.2369C74.3737 71.2293 75.7511 71.7886 76.7899 72.9148Z" fill="#00415A"/>
<path d="M95.6688 80.2309H84.8841C85.0317 81.0285 85.4293 81.7584 86.0193 82.3148C86.5722 82.8172 87.2961 83.0894 88.0429 83.0756C89.5073 83.0756 90.548 82.5078 91.1648 81.3722L95.3282 82.2239C94.7835 83.6518 93.7868 84.8621 92.4902 85.6705C91.1379 86.4674 89.5892 86.8687 88.0202 86.8288C87.0017 86.8507 85.9892 86.6686 85.0422 86.2932C84.0951 85.9178 83.2328 85.3566 82.5058 84.6428C80.9922 83.1873 80.2354 81.3154 80.2354 79.0272C80.2354 76.7389 80.9922 74.8708 82.5058 73.4229C83.2358 72.7042 84.1024 72.1392 85.0545 71.7613C86.0065 71.3834 87.0246 71.2003 88.0486 71.2227C89.0416 71.1982 90.0292 71.3756 90.9516 71.744C91.8741 72.1125 92.7123 72.6643 93.4154 73.3661C94.859 74.7913 95.6016 76.6783 95.6433 79.0272L95.6688 80.2309ZM86.1556 75.6572C85.5697 76.0683 85.1452 76.6706 84.9551 77.3607H91.0371C90.8718 76.6738 90.4786 76.0633 89.9217 75.6289C89.387 75.2358 88.7375 75.0302 88.0741 75.044C87.3859 75.0406 86.7143 75.2553 86.1556 75.6572Z" fill="#00415A"/>
<path d="M108.599 71.5833L108.395 76.279H107.543C104.16 76.279 102.47 78.1168 102.471 81.7924V86.3973H97.7915V71.6656H102.483V74.4819C103.694 72.47 105.384 71.4631 107.554 71.4612C107.906 71.4603 108.257 71.5013 108.599 71.5833Z" fill="#00415A"/>
<path d="M113.847 81.6108C114.036 82.7634 114.906 83.3397 116.458 83.3397C116.944 83.3654 117.427 83.249 117.848 83.0047C118.002 82.9209 118.13 82.7979 118.22 82.6483C118.31 82.4986 118.359 82.3278 118.362 82.153C118.362 81.606 117.874 81.2445 116.897 81.0685L113.906 80.4808C111.051 79.9528 109.624 78.5257 109.624 76.1996C109.604 75.4987 109.753 74.8033 110.06 74.1726C110.366 73.5419 110.82 72.9945 111.383 72.577C112.558 71.6685 114.083 71.2133 115.958 71.2114C117.757 71.2114 119.248 71.59 120.431 72.347C120.987 72.6862 121.47 73.1335 121.85 73.6627C122.23 74.1918 122.5 74.7919 122.645 75.4274L118.362 76.2791C118.321 76.0323 118.231 75.7963 118.097 75.5847C117.964 75.3731 117.789 75.1903 117.584 75.047C117.093 74.6984 116.5 74.5227 115.898 74.5473C115.447 74.509 114.997 74.6284 114.624 74.8851C114.501 74.9806 114.402 75.1028 114.333 75.2425C114.264 75.3822 114.228 75.5357 114.227 75.6914C114.227 76.2195 114.599 76.562 115.342 76.7191L118.793 77.4459C120.142 77.7393 121.159 78.2721 121.844 79.0443C122.533 79.8266 122.899 80.8413 122.869 81.8833C122.869 83.4675 122.253 84.6892 121.021 85.5485C119.789 86.4078 118.181 86.8384 116.196 86.8403C114.338 86.8403 112.779 86.4835 111.519 85.7699C110.919 85.4482 110.403 84.9896 110.013 84.4312C109.623 83.8729 109.37 83.2305 109.274 82.5562L113.847 81.6108Z" fill="#00415A"/>
<path d="M135.427 86.3915L130.648 81.0825H129.797V86.3915H125.105V65.272H129.797V76.6934H130.444L135.107 71.6768H140.766L134.312 78.6807L141.438 86.3943L135.427 86.3915Z" fill="#00415A"/>
<path d="M157.184 86.3917H152.493V85.2107C151.301 86.2876 149.776 86.8251 147.918 86.8232C146.964 86.8374 146.019 86.6506 145.142 86.2749C144.266 85.8992 143.479 85.3431 142.832 84.6429C141.432 83.1874 140.732 81.3155 140.734 79.0273C140.736 76.739 141.435 74.8709 142.832 73.423C143.476 72.7183 144.263 72.1579 145.139 71.7787C146.016 71.3995 146.963 71.21 147.918 71.2228C149.776 71.2228 151.301 71.7612 152.493 72.8382V71.6628H157.184V86.3917ZM151.431 81.7726C152.119 81.0278 152.501 80.0511 152.501 79.0372C152.501 78.0233 152.119 77.0466 151.431 76.3018C151.104 75.9536 150.708 75.6774 150.268 75.4907C149.828 75.304 149.354 75.2109 148.877 75.2173C148.399 75.2017 147.924 75.2892 147.483 75.4739C147.042 75.6586 146.646 75.9361 146.323 76.2876C145.679 77.0593 145.327 78.0323 145.327 79.0372C145.327 80.0421 145.679 81.0151 146.323 81.7868C146.649 82.1342 147.045 82.4081 147.486 82.5902C147.926 82.7723 148.4 82.8585 148.877 82.8429C149.353 82.8494 149.826 82.7578 150.265 82.5736C150.705 82.3895 151.102 82.1168 151.431 81.7726Z" fill="#00415A"/>
<path d="M174.675 73.4257C176.071 74.8925 176.77 76.7606 176.77 79.0299C176.77 81.2992 176.071 83.1701 174.675 84.6427C174.028 85.344 173.24 85.9012 172.363 86.2779C171.487 86.6545 170.54 86.8422 169.586 86.8287C167.73 86.8287 166.205 86.2912 165.011 85.2161V86.3887H160.32V65.272H165.011V72.8408C166.205 71.7639 167.73 71.2254 169.586 71.2254C170.542 71.2126 171.489 71.4021 172.366 71.7813C173.243 72.1604 174.03 72.7208 174.675 73.4257ZM171.17 81.7866C171.813 81.0149 172.166 80.0419 172.166 79.037C172.166 78.0321 171.813 77.0591 171.17 76.2874C170.846 75.9359 170.45 75.6584 170.01 75.4737C169.569 75.289 169.093 75.2015 168.616 75.2171C168.141 75.2134 167.671 75.3078 167.234 75.4944C166.797 75.681 166.404 75.9558 166.079 76.3016C165.391 77.0464 165.009 78.0231 165.009 79.037C165.009 80.0509 165.391 81.0276 166.079 81.7724C166.406 82.1142 166.8 82.3855 167.237 82.5695C167.673 82.7536 168.142 82.8466 168.616 82.8427C169.092 82.8583 169.566 82.7721 170.007 82.59C170.447 82.4079 170.844 82.134 171.17 81.7866Z" fill="#00415A"/>
<path d="M20.349 112.199C19.9006 114.623 18.7767 116.529 16.9774 117.916C15.178 119.304 13.0022 119.998 10.4498 120C9.07806 120.03 7.71447 119.782 6.44036 119.273C5.16626 118.764 4.00773 118.003 3.0339 117.036C2.07248 116.08 1.30952 114.943 0.788893 113.691C0.268265 112.439 0.000244141 111.096 0.000244141 109.74C0.000244141 108.384 0.268265 107.041 0.788893 105.789C1.30952 104.537 2.07248 103.4 3.0339 102.444C4.00409 101.474 5.1601 100.711 6.43251 100.2C7.70492 99.6885 9.0675 99.4397 10.4384 99.4683C12.7521 99.4203 15.0162 100.142 16.8752 101.521C18.6726 102.849 19.9006 104.809 20.3121 107.006L15.5612 108.119C15.2679 106.731 14.6672 105.681 13.759 104.968C12.8051 104.239 11.6296 103.861 10.4299 103.897C9.68774 103.884 8.95095 104.026 8.26674 104.314C7.58252 104.602 6.96598 105.029 6.45661 105.569C5.41093 106.707 4.83058 108.196 4.83058 109.741C4.83058 111.287 5.41093 112.776 6.45661 113.913C6.96397 114.457 7.5798 114.888 8.26426 115.179C8.94871 115.469 9.68652 115.613 10.4299 115.6C11.6241 115.632 12.7916 115.243 13.7278 114.501C14.6378 113.765 15.2584 112.684 15.5895 111.259L20.349 112.199Z" fill="#0F87BE"/>
<path d="M39.753 102.458C40.7153 103.411 41.4791 104.545 42.0005 105.795C42.5218 107.045 42.7902 108.386 42.7902 109.74C42.7902 111.094 42.5218 112.435 42.0005 113.685C41.4791 114.935 40.7153 116.069 39.753 117.022C38.7783 117.994 37.6176 118.758 36.3403 119.27C35.0631 119.782 33.6956 120.03 32.3201 120C30.9445 120.03 29.5771 119.782 28.2998 119.27C27.0226 118.758 25.8618 117.994 24.8872 117.022C23.9259 116.069 23.1629 114.935 22.6423 113.685C22.1216 112.435 21.8535 111.094 21.8535 109.74C21.8535 108.386 22.1216 107.045 22.6423 105.796C23.1629 104.546 23.9259 103.411 24.8872 102.458C25.8599 101.483 27.02 100.716 28.2976 100.202C29.5751 99.688 30.9435 99.4385 32.3201 99.4685C33.6967 99.4385 35.0651 99.688 36.3426 100.202C37.6201 100.716 38.7803 101.483 39.753 102.458ZM36.3473 113.913C36.8799 113.365 37.2969 112.714 37.5738 112.002C37.8507 111.289 37.9818 110.527 37.9593 109.763C37.9827 108.992 37.8522 108.224 37.5754 107.504C37.2986 106.784 36.8811 106.126 36.3473 105.57C35.8201 105.041 35.1939 104.622 34.5046 104.336C33.8152 104.05 33.0763 103.903 32.33 103.903C31.5837 103.903 30.8448 104.05 30.1555 104.336C29.4661 104.622 28.8399 105.041 28.3127 105.57C27.778 106.126 27.3597 106.783 27.0824 107.503C26.8051 108.223 26.6743 108.991 26.6978 109.763C26.6753 110.528 26.8066 111.289 27.084 112.002C27.3614 112.715 27.7792 113.365 28.3127 113.913C29.3801 114.976 30.8244 115.572 32.33 115.572C33.8356 115.572 35.2799 114.976 36.3473 113.913Z" fill="#0F87BE"/>
<path d="M55.3624 119.563H50.6994L42.3413 99.9111H47.6797L53.0153 112.934L58.3821 99.9111H63.7177L55.3624 119.563Z" fill="#0F87BE"/>
<path d="M65.2332 119.563V99.9084H70.0721V119.563H65.2332Z" fill="#0F87BE"/>
<path d="M81.7395 99.9084C84.9673 99.9084 87.5679 100.812 89.5414 102.62C91.5148 104.427 92.5015 106.799 92.5015 109.734C92.5015 112.668 91.5148 115.039 89.5414 116.846C87.5679 118.654 84.9673 119.559 81.7395 119.563H73.9717V99.9084H81.7395ZM81.5635 115.364C83.4026 115.364 84.8737 114.851 85.9767 113.825C87.0798 112.8 87.6323 111.436 87.6342 109.734C87.6342 108.031 87.0817 106.666 85.9767 105.64C84.8718 104.615 83.4007 104.102 81.5635 104.102H78.8078V115.364H81.5635Z" fill="#0F87BE"/>
<path d="M95.5437 113.839V109.879H105.25V113.839H95.5437Z" fill="#0F87BE"/>
<path d="M115.334 119.563H110.642V105.481L105.951 107.886V103.545L112.283 99.9084H115.334V119.563Z" fill="#0F87BE"/>
<path d="M131.604 102.077C133.118 103.816 133.87 106.251 133.861 109.382C133.861 113.078 132.952 115.845 131.133 117.683C130.403 118.442 129.522 119.039 128.548 119.438C127.573 119.837 126.527 120.028 125.474 120C123.716 120 122.222 119.584 120.99 118.754C119.752 117.915 118.873 116.643 118.527 115.188L123.067 114.31C123.4 115.423 124.26 115.98 125.647 115.98C126.105 115.979 126.557 115.879 126.972 115.687C127.388 115.495 127.757 115.215 128.054 114.867C128.894 113.921 129.333 112.596 129.371 110.892C128.799 111.483 128.109 111.948 127.346 112.256C126.584 112.564 125.765 112.708 124.943 112.681C122.872 112.681 121.215 112.079 119.974 110.875C118.733 109.671 118.112 108.102 118.112 106.168C118.086 105.259 118.261 104.356 118.624 103.522C118.987 102.688 119.529 101.945 120.212 101.345C121.599 100.094 123.378 99.468 125.548 99.468C128.078 99.468 130.096 100.338 131.604 102.077ZM127.674 108.323C127.953 108.054 128.174 107.73 128.32 107.371C128.467 107.012 128.537 106.627 128.525 106.239C128.533 105.862 128.46 105.488 128.31 105.141C128.161 104.795 127.939 104.485 127.659 104.232C127.123 103.707 126.4 103.416 125.65 103.423C124.881 103.419 124.14 103.714 123.584 104.246C123.295 104.503 123.066 104.82 122.912 105.174C122.757 105.529 122.682 105.912 122.69 106.299C122.681 106.683 122.756 107.065 122.91 107.417C123.065 107.77 123.295 108.084 123.584 108.337C124.144 108.86 124.884 109.149 125.65 109.143C126.025 109.149 126.397 109.08 126.745 108.94C127.092 108.799 127.408 108.59 127.674 108.326V108.323Z" fill="#0F87BE"/>
</g>
<defs>
<clipPath id="clip0">
<rect width="239" height="120" fill="white"/>
</clipPath>
</defs>
</svg>
