<svg xmlns="http://www.w3.org/2000/svg" width="820" height="820" viewBox="0 0 820 820"><defs><style>.cls-1{fill:#00415a;}.cls-2{fill:#005f87;}.cls-3{fill:#64b4dc;}</style></defs><g id="Outlinet_Tekst_DK_09.09.21"><path class="cls-1" d="M180.3817,593.1152a8.6321,8.6321,0,0,1,2.64,3.2105,10.4714,10.4714,0,0,1,1.0195,4.74,10.595,10.595,0,0,1-3.2392,8.13q-3.24,3.0308-9.7207,3.03H151.2215v-40.2h19.8a12.0667,12.0667,0,0,1,8.64,3.0605,10.619,10.619,0,0,1,3.24,8.1,9.0393,9.0393,0,0,1-.93,4.2,8.1362,8.1362,0,0,1-2.28,2.82,6.3528,6.3528,0,0,1-2.67,1.26v.24A7.4632,7.4632,0,0,1,180.3817,593.1152Zm-21-14.13v9.84h10.1992a5.44,5.44,0,0,0,3.9306-1.41,4.9553,4.9553,0,0,0,1.47-3.75,4.4037,4.4037,0,0,0-1.41-3.36,4.8656,4.8656,0,0,0-3.45-1.32Zm14.9091,24.93a4.7908,4.7908,0,0,0,1.41-3.63,4.7385,4.7385,0,0,0-1.4395-3.63,5.3066,5.3066,0,0,0-3.78-1.35h-11.1v9.96h10.8A5.717,5.717,0,0,0,174.2908,603.9155Z"/><path class="cls-1" d="M198.6815,612.2256h-7.92v-43.2h7.92Z"/><path class="cls-1" d="M214.8807,570.0156a4.6043,4.6043,0,0,1,1.38,3.33,4.377,4.377,0,0,1-1.38,3.3,5.1286,5.1286,0,0,1-6.87,0,4.4265,4.4265,0,0,1-1.35-3.3,4.8156,4.8156,0,0,1,8.22-3.33Zm.54,42.21h-7.92v-29.94h7.92Z"/><path class="cls-1" d="M254.0008,582.2256l-12.48,30h-8.4l-12.4805-30h8.52l8.16,20.34,8.16-20.34Z"/><path class="cls-1" d="M303.14,582.2256l-12.4795,30h-8.4l-12.4805-30h8.52l8.16,20.34,8.16-20.34Z"/><path class="cls-1" d="M337.16,582.2856v29.94h-7.92v-2.34a15.2719,15.2719,0,0,1-9.9,3.24,13.945,13.945,0,0,1-7.2305-2.01,14.8637,14.8637,0,0,1-5.43-5.64,17.46,17.46,0,0,1,0-16.38,15.1089,15.1089,0,0,1,5.43-5.67,13.7951,13.7951,0,0,1,7.2305-2.04,14.9478,14.9478,0,0,1,9.9,3.3v-2.4Zm-12.3008,22.83a8.4266,8.4266,0,0,0,3.1807-3.1494,9.0566,9.0566,0,0,0,1.2-4.68,9.22,9.22,0,0,0-1.2-4.71,8.4883,8.4883,0,0,0-7.32-4.29,8.0135,8.0135,0,0,0-6.03,2.46,9.0293,9.0293,0,0,0-2.3692,6.54,8.923,8.923,0,0,0,2.3692,6.51,8.0635,8.0635,0,0,0,6.03,2.43A8.3328,8.3328,0,0,0,324.8592,605.1152Z"/><path class="cls-1" d="M366.8592,600.0459l7.32,1.8594a13.9621,13.9621,0,0,1-5.4307,8.16,15.753,15.753,0,0,1-9.5693,3.06,16.4236,16.4236,0,0,1-8.04-2.01,15.2185,15.2185,0,0,1-5.82-5.6093,15.66,15.66,0,0,1-2.16-8.22,15.82,15.82,0,0,1,2.16-8.25,15.1649,15.1649,0,0,1,5.82-5.64,16.4243,16.4243,0,0,1,8.04-2.01,15.4214,15.4214,0,0,1,9.39,3.03,15.1018,15.1018,0,0,1,5.61,8.01l-7.62,2.16a7.7943,7.7943,0,0,0-2.7-4.5,7.5768,7.5768,0,0,0-4.68-1.44,7.9916,7.9916,0,0,0-6.03,2.4,8.6236,8.6236,0,0,0-2.31,6.24,8.5173,8.5173,0,0,0,2.31,6.21,8.04,8.04,0,0,0,6.03,2.37Q364.9392,605.8652,366.8592,600.0459Z"/><path class="cls-1" d="M401.4793,600.0459l7.32,1.8594a13.9624,13.9624,0,0,1-5.4306,8.16,15.7535,15.7535,0,0,1-9.5694,3.06,16.4236,16.4236,0,0,1-8.04-2.01,15.2192,15.2192,0,0,1-5.82-5.6093,15.66,15.66,0,0,1-2.16-8.22,15.82,15.82,0,0,1,2.16-8.25,15.1656,15.1656,0,0,1,5.82-5.64,16.4243,16.4243,0,0,1,8.04-2.01,15.4212,15.4212,0,0,1,9.39,3.03,15.1018,15.1018,0,0,1,5.61,8.01l-7.62,2.16a7.7943,7.7943,0,0,0-2.7-4.5,7.5768,7.5768,0,0,0-4.68-1.44,7.9917,7.9917,0,0,0-6.03,2.4,8.6236,8.6236,0,0,0-2.31,6.24,8.5173,8.5173,0,0,0,2.31,6.21,8.04,8.04,0,0,0,6.03,2.37Q399.5594,605.8652,401.4793,600.0459Z"/><path class="cls-1" d="M422.5994,570.0156a4.6043,4.6043,0,0,1,1.38,3.33,4.377,4.377,0,0,1-1.38,3.3,5.1286,5.1286,0,0,1-6.87,0,4.4267,4.4267,0,0,1-1.35-3.3,4.8155,4.8155,0,0,1,8.22-3.33Zm.54,42.21h-7.92v-29.94h7.92Z"/><path class="cls-1" d="M455.5692,582.9756a10.8622,10.8622,0,0,1,4.23,4.47,13.961,13.961,0,0,1,1.5,6.54v18.24h-7.92v-16.56a7.559,7.559,0,0,0-1.65-5.1,5.5251,5.5251,0,0,0-4.41-1.92,6.5371,6.5371,0,0,0-5.4893,2.52q-1.9512,2.52-1.95,7.8v13.26h-7.92v-29.94h7.92v2.7a12.74,12.74,0,0,1,9.42-3.6A12.2328,12.2328,0,0,1,455.5692,582.9756Z"/><path class="cls-1" d="M497.18,599.3857h-22.8a8.8543,8.8543,0,0,0,2.67,5.07,6.936,6.936,0,0,0,4.83,1.89,10.9693,10.9693,0,0,0,4.14-.75,7.1056,7.1056,0,0,0,3.3-3.21l7.08,1.5a14.4093,14.4093,0,0,1-5.6992,6.9,16.415,16.415,0,0,1-8.82,2.34,15.2416,15.2416,0,0,1-7.71-2.01,14.8773,14.8773,0,0,1-5.58-5.6093,16.1934,16.1934,0,0,1-2.07-8.22,16.36,16.36,0,0,1,2.07-8.25,14.7558,14.7558,0,0,1,5.61-5.64,15.5191,15.5191,0,0,1,7.8-2.01,14.8221,14.8221,0,0,1,7.41,1.95,15.0612,15.0612,0,0,1,5.55,5.43,15.9,15.9,0,0,1,2.22,7.92Zm-19.7695-9.66a6.69,6.69,0,0,0-2.79,4.08h14.46a7.4157,7.4157,0,0,0-2.67-4.14,7.2852,7.2852,0,0,0-4.41-1.38A8.0351,8.0351,0,0,0,477.41,589.7256Z"/><path class="cls-1" d="M523.9393,582.1055l-.42,7.62h-1.74q-10.68,0-10.68,12.84v9.66h-7.92v-29.94h7.92v5.46q4.08-5.8791,10.74-5.88A7.0357,7.0357,0,0,1,523.9393,582.1055Z"/><path class="cls-1" d="M556.88,599.3857h-22.8a8.8543,8.8543,0,0,0,2.67,5.07,6.936,6.936,0,0,0,4.83,1.89,10.9693,10.9693,0,0,0,4.14-.75,7.105,7.105,0,0,0,3.3-3.21l7.08,1.5a14.4093,14.4093,0,0,1-5.6992,6.9,16.415,16.415,0,0,1-8.82,2.34,15.2416,15.2416,0,0,1-7.71-2.01,14.8773,14.8773,0,0,1-5.58-5.6093,16.1934,16.1934,0,0,1-2.07-8.22,16.36,16.36,0,0,1,2.07-8.25,14.7558,14.7558,0,0,1,5.61-5.64,15.5191,15.5191,0,0,1,7.8-2.01,14.8221,14.8221,0,0,1,7.41,1.95,15.0612,15.0612,0,0,1,5.55,5.43,15.9,15.9,0,0,1,2.22,7.92Zm-19.7695-9.66a6.69,6.69,0,0,0-2.79,4.08h14.46a7.4157,7.4157,0,0,0-2.67-4.14,7.2852,7.2852,0,0,0-4.41-1.38A8.0351,8.0351,0,0,0,537.11,589.7256Z"/><path class="cls-1" d="M584.66,610.9053a21.6183,21.6183,0,0,1-4.08,1.71,13.5885,13.5885,0,0,1-3.7207.51q-5.521,0-8.64-2.97t-3.12-8.97v-12.42h-6.42v-6.48h6.42v-9.06h7.92v9.06h9.78v6.48h-9.78v11.82a5.58,5.58,0,0,0,1.17,3.8995,4.1642,4.1642,0,0,0,3.21,1.26,8.9912,8.9912,0,0,0,2.4-.39,12.2282,12.2282,0,0,0,2.58-1.05Z"/><path class="cls-1" d="M625.4891,583.5459a15.16,15.16,0,0,1,5.88,5.58,16.3007,16.3007,0,0,1,0,16.32,15.1617,15.1617,0,0,1-5.88,5.58,16.7986,16.7986,0,0,1-8.07,1.9805,17.2661,17.2661,0,0,1-8.1905-1.9805,15.1037,15.1037,0,0,1-5.9394-5.55,16.4057,16.4057,0,0,1,0-16.38,15.1073,15.1073,0,0,1,5.9394-5.55,17.2661,17.2661,0,0,1,8.1905-1.9805A16.7986,16.7986,0,0,1,625.4891,583.5459Zm-4.02,21.5693a9.0621,9.0621,0,0,0,0-15.66,8.081,8.081,0,0,0-4.05-1.11,8.64,8.64,0,0,0-4.2,1.08,8.4177,8.4177,0,0,0-3.21,3.12,9.7507,9.7507,0,0,0,0,9.48,8.4112,8.4112,0,0,0,3.21,3.12,8.6456,8.6456,0,0,0,4.2,1.08A8.0673,8.0673,0,0,0,621.4686,605.1152Z"/><path class="cls-1" d="M668.7781,610.8457q0,6.7792-4.32,10.53t-11.6992,3.75a21.1211,21.1211,0,0,1-8.8809-1.71,12.8081,12.8081,0,0,1-5.6992-4.89l6.42-4.86a13.1784,13.1784,0,0,0,3.6,3.33,9.1788,9.1788,0,0,0,4.5605.99,8.2959,8.2959,0,0,0,6.09-2.22,8.2089,8.2089,0,0,0,2.25-6.12v-1.98q-3.42,2.7606-9.42,2.76a13.8887,13.8887,0,0,1-7.08-1.95,15.1527,15.1527,0,0,1-5.4-5.28,14.1514,14.1514,0,0,1,0-14.64,14.917,14.917,0,0,1,5.4-5.25,14.0587,14.0587,0,0,1,7.08-1.92q5.8785,0,9.42,2.76v-1.86h7.62Zm-11.76-8.19a7.73,7.73,0,0,0,2.97-2.76,7.9409,7.9409,0,0,0,0-8.1,7.7391,7.7391,0,0,0-2.97-2.76,8.3068,8.3068,0,0,0-3.96-.99,8.4171,8.4171,0,0,0-5.94,2.16,7.9669,7.9669,0,0,0,0,11.28,8.4156,8.4156,0,0,0,5.94,2.16A8.3073,8.3073,0,0,0,657.0184,602.6553Z"/><path class="cls-1" d="M247.79,654.1055l-.42,7.62h-1.74q-10.68,0-10.68,12.84v9.66h-7.92v-29.94h7.92v5.46q4.08-5.8791,10.74-5.88A7.036,7.036,0,0,1,247.79,654.1055Z"/><path class="cls-1" d="M280.7293,671.3857h-22.8a8.8543,8.8543,0,0,0,2.67,5.07,6.936,6.936,0,0,0,4.83,1.89,10.97,10.97,0,0,0,4.14-.75,7.1059,7.1059,0,0,0,3.3-3.21l7.08,1.5a14.4093,14.4093,0,0,1-5.6992,6.9,16.415,16.415,0,0,1-8.82,2.34,15.2416,15.2416,0,0,1-7.71-2.01,14.8773,14.8773,0,0,1-5.58-5.6093,16.1933,16.1933,0,0,1-2.07-8.22,16.36,16.36,0,0,1,2.07-8.25,14.7558,14.7558,0,0,1,5.61-5.64,15.5191,15.5191,0,0,1,7.8-2.01,14.8221,14.8221,0,0,1,7.41,1.95,15.0612,15.0612,0,0,1,5.55,5.43,15.8993,15.8993,0,0,1,2.22,7.92Zm-19.77-9.66a6.69,6.69,0,0,0-2.79,4.08h14.46a7.4157,7.4157,0,0,0-2.67-4.14,7.2852,7.2852,0,0,0-4.41-1.38A8.0351,8.0351,0,0,0,260.96,661.7256Z"/><path class="cls-1" d="M315.59,654.2256l-12.4795,30h-8.4l-12.48-30h8.52l8.16,20.34,8.16-20.34Z"/><path class="cls-1" d="M349.6092,654.2856v29.94h-7.92v-2.34a15.2723,15.2723,0,0,1-9.9,3.24,13.945,13.945,0,0,1-7.2305-2.01,14.8637,14.8637,0,0,1-5.43-5.64,17.46,17.46,0,0,1,0-16.38,15.1089,15.1089,0,0,1,5.43-5.67,13.7951,13.7951,0,0,1,7.2305-2.04,14.9483,14.9483,0,0,1,9.9,3.3v-2.4Zm-12.3008,22.83a8.4266,8.4266,0,0,0,3.1807-3.1494,9.0567,9.0567,0,0,0,1.2-4.68,9.22,9.22,0,0,0-1.2-4.71,8.4883,8.4883,0,0,0-7.32-4.29,8.0137,8.0137,0,0,0-6.03,2.46,9.0293,9.0293,0,0,0-2.3692,6.54,8.923,8.923,0,0,0,2.3692,6.51,8.0637,8.0637,0,0,0,6.03,2.43A8.3327,8.3327,0,0,0,337.3084,677.1152Z"/><path class="cls-1" d="M379.3084,672.0459l7.32,1.8594a13.9624,13.9624,0,0,1-5.4306,8.16,15.7535,15.7535,0,0,1-9.5694,3.06,16.4236,16.4236,0,0,1-8.04-2.01,15.2192,15.2192,0,0,1-5.82-5.6093,15.66,15.66,0,0,1-2.16-8.22,15.82,15.82,0,0,1,2.16-8.25,15.1656,15.1656,0,0,1,5.82-5.64,16.4243,16.4243,0,0,1,8.04-2.01,15.4212,15.4212,0,0,1,9.39,3.03,15.1018,15.1018,0,0,1,5.61,8.01l-7.62,2.16a7.7943,7.7943,0,0,0-2.7-4.5,7.5768,7.5768,0,0,0-4.68-1.44,7.9917,7.9917,0,0,0-6.03,2.4,8.6236,8.6236,0,0,0-2.31,6.24,8.5173,8.5173,0,0,0,2.31,6.21,8.04,8.04,0,0,0,6.03,2.37Q377.3886,677.8652,379.3084,672.0459Z"/><path class="cls-1" d="M413.9285,672.0459l7.32,1.8594a13.9624,13.9624,0,0,1-5.4306,8.16,15.7535,15.7535,0,0,1-9.5694,3.06,16.4239,16.4239,0,0,1-8.04-2.01,15.2192,15.2192,0,0,1-5.82-5.6093,15.6607,15.6607,0,0,1-2.16-8.22,15.8208,15.8208,0,0,1,2.16-8.25,15.1656,15.1656,0,0,1,5.82-5.64,16.4246,16.4246,0,0,1,8.04-2.01,15.421,15.421,0,0,1,9.39,3.03,15.1013,15.1013,0,0,1,5.61,8.01l-7.62,2.16a7.7943,7.7943,0,0,0-2.7-4.5,7.5766,7.5766,0,0,0-4.68-1.44,7.9914,7.9914,0,0,0-6.03,2.4,8.6233,8.6233,0,0,0-2.31,6.24,8.5169,8.5169,0,0,0,2.31,6.21,8.04,8.04,0,0,0,6.03,2.37Q412.0087,677.8652,413.9285,672.0459Z"/><path class="cls-1" d="M435.0486,642.0156a4.6039,4.6039,0,0,1,1.38,3.33,4.3766,4.3766,0,0,1-1.38,3.3,5.1286,5.1286,0,0,1-6.87,0,4.4267,4.4267,0,0,1-1.35-3.3,4.8155,4.8155,0,0,1,8.22-3.33Zm.54,42.21h-7.92v-29.94h7.92Z"/><path class="cls-1" d="M468.0184,654.9756a10.8622,10.8622,0,0,1,4.23,4.47,13.96,13.96,0,0,1,1.5,6.54v18.24h-7.92v-16.56a7.559,7.559,0,0,0-1.65-5.1,5.5251,5.5251,0,0,0-4.41-1.92,6.5371,6.5371,0,0,0-5.4893,2.52q-1.9512,2.52-1.95,7.8v13.26h-7.92v-29.94h7.92v2.7a12.74,12.74,0,0,1,9.42-3.6A12.2326,12.2326,0,0,1,468.0184,654.9756Z"/><path class="cls-1" d="M509.6287,671.3857h-22.8a8.8549,8.8549,0,0,0,2.67,5.07,6.936,6.936,0,0,0,4.83,1.89,10.97,10.97,0,0,0,4.14-.75,7.1059,7.1059,0,0,0,3.3-3.21l7.08,1.5a14.4087,14.4087,0,0,1-5.6992,6.9,16.415,16.415,0,0,1-8.82,2.34,15.241,15.241,0,0,1-7.71-2.01,14.8776,14.8776,0,0,1-5.58-5.6093,16.1933,16.1933,0,0,1-2.07-8.22,16.36,16.36,0,0,1,2.07-8.25,14.7565,14.7565,0,0,1,5.61-5.64,15.5191,15.5191,0,0,1,7.8-2.01,14.8221,14.8221,0,0,1,7.41,1.95,15.0612,15.0612,0,0,1,5.55,5.43,15.8993,15.8993,0,0,1,2.22,7.92Zm-19.7695-9.66a6.69,6.69,0,0,0-2.79,4.08h14.46a7.4152,7.4152,0,0,0-2.67-4.14,7.2852,7.2852,0,0,0-4.41-1.38A8.0351,8.0351,0,0,0,489.8592,661.7256Z"/><path class="cls-1" d="M536.3885,654.1055l-.42,7.62h-1.74q-10.68,0-10.68,12.84v9.66h-7.92v-29.94h7.92v5.46q4.08-5.8791,10.74-5.88A7.0357,7.0357,0,0,1,536.3885,654.1055Z"/><path class="cls-1" d="M569.3289,671.3857h-22.8a8.8549,8.8549,0,0,0,2.67,5.07,6.936,6.936,0,0,0,4.83,1.89,10.97,10.97,0,0,0,4.14-.75,7.1059,7.1059,0,0,0,3.3-3.21l7.08,1.5a14.4087,14.4087,0,0,1-5.6992,6.9,16.415,16.415,0,0,1-8.82,2.34,15.241,15.241,0,0,1-7.71-2.01,14.8776,14.8776,0,0,1-5.58-5.6093,16.1933,16.1933,0,0,1-2.07-8.22,16.36,16.36,0,0,1,2.07-8.25,14.7565,14.7565,0,0,1,5.61-5.64,15.5191,15.5191,0,0,1,7.8-2.01,14.8221,14.8221,0,0,1,7.41,1.95,15.0612,15.0612,0,0,1,5.55,5.43,15.8993,15.8993,0,0,1,2.22,7.92Zm-19.7695-9.66a6.69,6.69,0,0,0-2.79,4.08h14.46a7.4152,7.4152,0,0,0-2.67-4.14,7.2852,7.2852,0,0,0-4.41-1.38A8.0351,8.0351,0,0,0,549.5594,661.7256Z"/><path class="cls-1" d="M597.1092,682.9053a21.6183,21.6183,0,0,1-4.08,1.71,13.5885,13.5885,0,0,1-3.7207.51q-5.521,0-8.64-2.97-3.12-2.9692-3.12-8.97v-12.42h-6.42v-6.48h6.42v-9.06h7.92v9.06h9.78v6.48h-9.78v11.82a5.58,5.58,0,0,0,1.17,3.8995,4.1643,4.1643,0,0,0,3.21,1.26,8.9912,8.9912,0,0,0,2.4-.39,12.226,12.226,0,0,0,2.58-1.05Z"/></g><g id="Outlinet_ikoner" data-name="Outlinet ikoner"><path class="cls-2" d="M329.0428,424.3472c-16.5821,0-34.3067-7.164-48.1983-21.0566C269.01,391.4556,261.6189,376.49,260.035,361.149c-1.6514-15.9951,3.1338-30.4981,13.4746-40.8389L451.9129,141.9058l90.3164,90.3164L363.824,410.6255C354.6043,419.8453,342.1814,424.3472,329.0428,424.3472Zm122.87-258.5566L285.451,332.2525c-6.6758,6.6758-9.7354,16.3223-8.6162,27.1611,1.1865,11.4942,6.8515,22.835,15.9511,31.9356,18.3155,18.3144,44.8262,21.6054,59.0967,7.3349L518.3445,232.2222Z"/><rect class="cls-3" x="191.533" y="438.1231" width="92.0703" height="16.8877" transform="translate(-246.1884 298.7825) rotate(-45)"/><polygon class="cls-3" points="528.164 194.947 516.222 183.005 568.392 130.835 553.301 115.742 501.13 167.912 489.188 155.97 553.301 91.857 592.277 130.835 528.164 194.947"/><rect class="cls-3" x="560.6565" y="50.2878" width="16.8877" height="129.779" transform="translate(85.243 436.1494) rotate(-45)"/><path class="cls-2" d="M329.117,424.42a59.6717,59.6717,0,0,1-6.1309-.3194c-15.3408-1.5839-30.3066-8.9746-42.1416-20.81s-19.2256-26.8-20.8095-42.1416c-1.6514-15.9951,3.1338-30.4981,13.4746-40.8389L451.9129,141.9068l90.3164,90.3154L363.825,410.6255C354.823,419.6275,342.6658,424.42,329.117,424.42Zm122.7959-258.628L285.451,332.2525c-6.6758,6.6758-9.7354,16.3223-8.6162,27.1621,1.1865,11.4932,6.8515,22.835,15.9511,31.9336,9.1006,9.1006,20.4414,14.7656,31.9356,15.9521,10.832,1.12,20.4853-1.94,27.16-8.6162h.001L518.3445,232.2222Z"/><rect class="cls-3" x="191.533" y="438.1231" width="92.0703" height="16.8877" transform="translate(-246.1884 298.7825) rotate(-45)"/><polygon class="cls-3" points="528.164 194.947 516.222 183.005 568.392 130.835 553.301 115.743 501.13 167.913 489.188 155.971 553.301 91.858 592.277 130.835 528.164 194.947"/><rect class="cls-3" x="560.6565" y="50.2878" width="16.8877" height="129.779" transform="translate(85.243 436.1494) rotate(-45)"/></g></svg>