<?xml version="1.0" encoding="UTF-8"?><svg xmlns="http://www.w3.org/2000/svg" width="820" height="820" viewBox="0 0 820 820"><defs><style>.e{fill:#00415a;}.f{fill:#005f87;}.g{fill:#64b4dc;}</style></defs><g id="a"/><g id="b"><g><path class="e" d="M257.0918,593.1218c1.0801,.7803,1.959,1.8506,2.6396,3.21,.6797,1.3604,1.0195,2.9404,1.0195,4.7402,0,3.4004-1.0791,6.1113-3.2393,8.1299-2.1602,2.0205-5.4004,3.0303-9.7207,3.0303h-19.8594v-40.2002h19.7998c3.5996,0,6.4805,1.0205,8.6396,3.0605,2.1602,2.04,3.2402,4.7393,3.2402,8.0996,0,1.6006-.3105,3-.9297,4.2002-.6211,1.2002-1.3799,2.1406-2.2803,2.8203s-1.791,1.0996-2.6699,1.2598v.2402c1.1602,.1602,2.2803,.6299,3.3604,1.4092Zm-21-14.1299v9.8398h10.1992c1.6396,0,2.9502-.4688,3.9307-1.4102,.9795-.9385,1.4697-2.1895,1.4697-3.75,0-1.3594-.4707-2.4795-1.4102-3.3594-.9404-.8789-2.0908-1.3203-3.4502-1.3203h-10.7393Zm14.9092,24.9297c.9395-.8994,1.4102-2.1094,1.4102-3.6289,0-1.5205-.4795-2.7305-1.4395-3.6309-.96-.8994-2.2207-1.3496-3.7803-1.3496h-11.0996v9.96h10.7998c1.7998,0,3.1699-.4502,4.1094-1.3506Z"/><path class="e" d="M275.3916,612.2321h-7.9199v-43.2002h7.9199v43.2002Z"/><path class="e" d="M291.5908,570.0222c.9199,.9404,1.3799,2.0498,1.3799,3.3301,0,1.3193-.46,2.4209-1.3799,3.2998-.9209,.8809-2.0605,1.3203-3.4199,1.3203-1.4004,0-2.5498-.4395-3.4502-1.3203-.8994-.8789-1.3496-1.9805-1.3496-3.2998,0-1.2803,.459-2.3896,1.3799-3.3301,.9199-.9395,2.0596-1.4102,3.4199-1.4102,1.3594,0,2.499,.4707,3.4199,1.4102Zm.54,42.21h-7.9199v-29.9395h7.9199v29.9395Z"/><path class="e" d="M330.7109,582.2321l-12.4795,30h-8.4004l-12.4805-30h8.5205l8.1602,20.3398,8.1602-20.3398h8.5195Z"/><path class="e" d="M373.7002,582.9821c1.8203,1.0605,3.2305,2.5498,4.2305,4.4697,.999,1.9199,1.5,4.1006,1.5,6.54v18.2402h-7.9199v-16.5605c0-2.1191-.5508-3.8184-1.6504-5.0996-1.1006-1.2793-2.5703-1.9199-4.4102-1.9199-2.3604,0-4.1904,.8398-5.4893,2.5195-1.3008,1.6807-1.9502,4.2812-1.9502,7.8008v13.2598h-7.9199v-43.2002h7.9199v15.96c2.3994-2.3994,5.54-3.5996,9.4199-3.5996,2.3594,0,4.4492,.5303,6.2695,1.5898Z"/><path class="e" d="M385.4307,617.6921c.8398,0,1.5195-.2197,2.04-.6602,.5195-.4404,.7803-1,.7803-1.6797v-33.0596h7.9199v34.1396c0,2.5996-.8008,4.6992-2.4004,6.2998-1.6006,1.5996-3.7197,2.4004-6.3604,2.4004-2.04,0-4.0791-.3809-6.1191-1.1406l1.4395-6.8994c1.1191,.3994,2.0195,.5996,2.7002,.5996Zm10.0801-47.6699c.9199,.9404,1.3799,2.0498,1.3799,3.3301,0,1.3193-.46,2.4209-1.3799,3.2998-.9209,.8809-2.0605,1.3203-3.4199,1.3203-1.4004,0-2.5498-.4395-3.4502-1.3203-.9004-.8789-1.3496-1.9805-1.3496-3.2998,0-1.2803,.459-2.3896,1.3799-3.3301,.9189-.9395,2.0596-1.4102,3.4199-1.4102,1.3594,0,2.499,.4707,3.4199,1.4102Z"/><path class="e" d="M433.1299,599.3923h-22.7998c.3994,2.1201,1.29,3.8096,2.6699,5.0703,1.3799,1.2598,2.9893,1.8896,4.8301,1.8896,1.5195,0,2.8994-.249,4.1396-.75,1.2393-.5,2.3398-1.5693,3.2998-3.21l7.0801,1.5c-1.2803,3.04-3.1797,5.3398-5.6992,6.9004-2.5205,1.5596-5.4609,2.3398-8.8203,2.3398-2.8008,0-5.3701-.6709-7.71-2.0107-2.3398-1.3389-4.2002-3.21-5.5801-5.6094-1.3799-2.4004-2.0703-5.1396-2.0703-8.2197s.6904-5.8301,2.0703-8.25,3.249-4.2998,5.6104-5.6406c2.3594-1.3398,4.959-2.0098,7.7998-2.0098,2.6396,0,5.1094,.6504,7.4102,1.9502,2.2988,1.2998,4.1494,3.1104,5.5498,5.4297,1.3994,2.3203,2.1387,4.96,2.2197,7.9199v2.7002Zm-19.7695-9.6602c-1.4209,.96-2.3506,2.3203-2.79,4.0801h14.46c-.5205-1.8398-1.4102-3.2197-2.6699-4.1406-1.2607-.9189-2.7305-1.3789-4.4102-1.3789-1.6406,0-3.1709,.4795-4.5898,1.4395Z"/><path class="e" d="M482.54,582.9216c1.7793,1.0205,3.1992,2.4512,4.2598,4.291,1.0596,1.8398,1.5898,3.9395,1.5898,6.2998v18.7197h-7.8604v-17.0996c0-1.96-.5605-3.5303-1.6797-4.7109-1.1201-1.1787-2.5195-1.7695-4.2002-1.7695-2.1602,0-3.8604,.7705-5.0996,2.3105-1.2402,1.54-1.8604,3.8301-1.8604,6.8691v14.4004h-7.9199v-17.0996c0-1.96-.5605-3.5303-1.6797-4.7109-1.1201-1.1787-2.5205-1.7695-4.2002-1.7695-2.1602,0-3.8398,.7607-5.04,2.2803-1.2002,1.5205-1.7998,3.8203-1.7998,6.8994v14.4004h-7.9199v-29.9395h7.9199v2.459c2.2393-2.2393,5.2197-3.3594,8.9395-3.3594,2.04,0,3.9199,.4297,5.6406,1.29,1.7188,.8604,3.1201,2.0693,4.2002,3.6299,1.2793-1.5605,2.8291-2.7695,4.6494-3.6299s3.9092-1.29,6.2705-1.29c2.0791,0,4.0098,.5098,5.79,1.5293Z"/><path class="e" d="M539.4199,582.9216c1.7793,1.0205,3.1992,2.4512,4.2598,4.291,1.0596,1.8398,1.5898,3.9395,1.5898,6.2998v18.7197h-7.8604v-17.0996c0-1.96-.5605-3.5303-1.6797-4.7109-1.1201-1.1787-2.5195-1.7695-4.2002-1.7695-2.1602,0-3.8604,.7705-5.0996,2.3105-1.2402,1.54-1.8604,3.8301-1.8604,6.8691v14.4004h-7.9199v-17.0996c0-1.96-.5605-3.5303-1.6797-4.7109-1.1201-1.1787-2.5205-1.7695-4.2002-1.7695-2.1602,0-3.8398,.7607-5.04,2.2803-1.2002,1.5205-1.7998,3.8203-1.7998,6.8994v14.4004h-7.9199v-29.9395h7.9199v2.459c2.2393-2.2393,5.2197-3.3594,8.9395-3.3594,2.04,0,3.9199,.4297,5.6406,1.29,1.7188,.8604,3.1201,2.0693,4.2002,3.6299,1.2793-1.5605,2.8291-2.7695,4.6494-3.6299s3.9092-1.29,6.2705-1.29c2.0791,0,4.0098,.5098,5.79,1.5293Z"/><path class="e" d="M581.1494,599.3923h-22.7998c.3994,2.1201,1.29,3.8096,2.6699,5.0703,1.3799,1.2598,2.9893,1.8896,4.8301,1.8896,1.5195,0,2.8994-.249,4.1396-.75,1.2393-.5,2.3398-1.5693,3.2998-3.21l7.0801,1.5c-1.2803,3.04-3.1797,5.3398-5.6992,6.9004-2.5205,1.5596-5.4609,2.3398-8.8203,2.3398-2.8008,0-5.3701-.6709-7.71-2.0107-2.3398-1.3389-4.2002-3.21-5.5801-5.6094-1.3799-2.4004-2.0703-5.1396-2.0703-8.2197s.6904-5.8301,2.0703-8.25,3.249-4.2998,5.6104-5.6406c2.3594-1.3398,4.959-2.0098,7.7998-2.0098,2.6396,0,5.1094,.6504,7.4102,1.9502,2.2988,1.2998,4.1494,3.1104,5.5498,5.4297,1.3994,2.3203,2.1387,4.96,2.2197,7.9199v2.7002Zm-19.7695-9.6602c-1.4209,.96-2.3506,2.3203-2.79,4.0801h14.46c-.5205-1.8398-1.4102-3.2197-2.6699-4.1406-1.2607-.9189-2.7305-1.3789-4.4102-1.3789-1.6406,0-3.1709,.4795-4.5898,1.4395Z"/><path class="e" d="M587.6895,620.152h-5.9404l3.6006-16.0801h9.1201v.1797l-6.7803,15.9004Z"/><path class="e" d="M238.7012,654.9821c1.8203,1.0605,3.2305,2.5498,4.2305,4.4697,.999,1.9199,1.5,4.1006,1.5,6.54v18.2402h-7.9199v-16.5605c0-2.1191-.5508-3.8184-1.6504-5.0996-1.1006-1.2793-2.5703-1.9199-4.4102-1.9199-2.3604,0-4.1904,.8398-5.4893,2.5195-1.3008,1.6807-1.9502,4.2812-1.9502,7.8008v13.2598h-7.9199v-43.2002h7.9199v15.96c2.3994-2.3994,5.54-3.5996,9.4199-3.5996,2.3594,0,4.4492,.5303,6.2695,1.5898Z"/><path class="e" d="M280.6123,654.2321l-12.4795,30h-8.4004l-12.4805-30h8.5205l8.1602,20.3398,8.1602-20.3398h8.5195Z"/><path class="e" d="M293.2119,642.0222c.9199,.9404,1.3799,2.0498,1.3799,3.3301,0,1.3193-.46,2.4209-1.3799,3.2998-.9209,.8809-2.0605,1.3203-3.4199,1.3203-1.4004,0-2.5498-.4395-3.4502-1.3203-.8994-.8789-1.3496-1.9805-1.3496-3.2998,0-1.2803,.459-2.3896,1.3799-3.3301,.9199-.9395,2.0596-1.4102,3.4199-1.4102,1.3594,0,2.499,.4707,3.4199,1.4102Zm.54,42.21h-7.9199v-29.9395h7.9199v29.9395Z"/><path class="e" d="M309.9824,677.8122c1.0996,.6406,2.5098,.96,4.2295,.96,1.4404,0,2.5801-.2793,3.4199-.8398,.8398-.5596,1.2598-1.2803,1.2598-2.1602,0-1.3203-1.1006-2.2197-3.2998-2.7002l-6.1201-1.2598c-2.7207-.5596-4.8096-1.5801-6.2695-3.0605-1.4609-1.4785-2.1904-3.2998-2.1904-5.459,0-1.9209,.5-3.6309,1.5-5.1309s2.4199-2.6699,4.2607-3.5098c1.8389-.8398,3.999-1.2598,6.4795-1.2598,3.4805,0,6.3896,.8203,8.7305,2.46,2.3398,1.6406,3.7695,3.7803,4.29,6.4199l-7.5605,1.5c-.1602-1.2393-.75-2.2393-1.7695-3-1.0205-.7598-2.3311-1.1396-3.9307-1.1396-1.4395,0-2.4805,.29-3.1201,.8691-.6396,.5811-.96,1.2705-.96,2.0703,0,.5996,.1807,1.1104,.54,1.5303,.3604,.4199,1.0801,.75,2.1602,.9902l7.1406,1.5596c2.5586,.5605,4.5088,1.5898,5.8496,3.0898,1.3398,1.5,2.0098,3.291,2.0098,5.3701,0,3.2402-1.1904,5.7207-3.5693,7.4404-2.3809,1.7188-5.5713,2.5801-9.5703,2.5801-3.5605,0-6.6006-.7305-9.1201-2.1904s-3.96-3.6689-4.3203-6.6299l7.9805-1.6201c.1992,1.4404,.8496,2.4805,1.9502,3.1201Z"/><path class="e" d="M377.4521,641.0319v43.2002h-7.9199v-2.3398c-2.6807,2.1602-5.9805,3.2402-9.9004,3.2402-2.5605,0-4.9707-.6709-7.2305-2.0107-2.2598-1.3389-4.0703-3.2188-5.4297-5.6396-1.3604-2.4199-2.04-5.1494-2.04-8.1895s.6797-5.7695,2.04-8.1904c1.3594-2.4199,3.1699-4.3096,5.4297-5.6699,2.2598-1.3594,4.6699-2.04,7.2305-2.04,3.96,0,7.2598,1.1006,9.9004,3.2998v-15.6602h7.9199Zm-12.3008,36.0898c1.3203-.7393,2.3799-1.7891,3.1807-3.1494,.7998-1.3594,1.2002-2.9199,1.2002-4.6797s-.4004-3.3301-1.2002-4.7109c-.8008-1.3799-1.8604-2.4395-3.1807-3.1797-1.3193-.7393-2.6992-1.1094-4.1396-1.1094-2.4404,0-4.4502,.8203-6.0303,2.459-1.5801,1.6406-2.3691,3.8203-2.3691,6.541s.7891,4.8896,2.3691,6.5098c1.5801,1.6191,3.5898,2.4297,6.0303,2.4297,1.4404,0,2.8203-.3691,4.1396-1.1104Z"/><path class="e" d="M414.4111,654.2927v29.9395h-7.9199v-2.7002c-2.3994,2.4004-5.54,3.6006-9.4199,3.6006-2.3604,0-4.4502-.5312-6.2695-1.5898-1.8213-1.0596-3.2314-2.5508-4.2305-4.4707-1-1.9199-1.5-4.0996-1.5-6.54v-18.2393h7.9199v16.5596c0,2.1201,.5498,3.8203,1.6504,5.0996,1.0996,1.2812,2.5693,1.9199,4.4102,1.9199,2.3594,0,4.1895-.8398,5.4893-2.5195,1.2998-1.6807,1.9502-4.2803,1.9502-7.7998v-13.2598h7.9199Z"/><path class="e" d="M465.6514,671.3923h-22.7998c.3994,2.1201,1.29,3.8096,2.6699,5.0703,1.3799,1.2598,2.9893,1.8896,4.8301,1.8896,1.5195,0,2.8994-.249,4.1396-.75,1.2393-.5,2.3398-1.5693,3.2998-3.21l7.0801,1.5c-1.2803,3.04-3.1797,5.3398-5.6992,6.9004-2.5205,1.5596-5.4609,2.3398-8.8203,2.3398-2.8008,0-5.3701-.6709-7.71-2.0107-2.3398-1.3389-4.2002-3.21-5.5801-5.6094-1.3799-2.4004-2.0703-5.1396-2.0703-8.2197s.6904-5.8301,2.0703-8.25,3.249-4.2998,5.6104-5.6406c2.3594-1.3398,4.959-2.0098,7.7998-2.0098,2.6396,0,5.1094,.6504,7.4102,1.9502,2.2988,1.2998,4.1494,3.1104,5.5498,5.4297,1.3994,2.3203,2.1387,4.96,2.2197,7.9199v2.7002Zm-19.7695-9.6602c-1.4209,.96-2.3506,2.3203-2.79,4.0801h14.46c-.5205-1.8398-1.4102-3.2197-2.6699-4.1406-1.2607-.9189-2.7305-1.3789-4.4102-1.3789-1.6406,0-3.1709,.4795-4.5898,1.4395Z"/><path class="e" d="M492.4111,654.112l-.4199,7.6201h-1.7402c-7.1201,0-10.6797,4.2803-10.6797,12.8398v9.6602h-7.9199v-29.9395h7.9199v5.459c2.7197-3.9189,6.2998-5.8799,10.7402-5.8799,.9189,0,1.6201,.0811,2.0996,.2402Z"/><path class="e" d="M519.3809,677.8122c1.0996,.6406,2.5098,.96,4.2295,.96,1.4404,0,2.5801-.2793,3.4199-.8398,.8398-.5596,1.2598-1.2803,1.2598-2.1602,0-1.3203-1.1006-2.2197-3.2998-2.7002l-6.1201-1.2598c-2.7207-.5596-4.8096-1.5801-6.2695-3.0605-1.4609-1.4785-2.1904-3.2998-2.1904-5.459,0-1.9209,.5-3.6309,1.5-5.1309s2.4199-2.6699,4.2607-3.5098c1.8389-.8398,3.999-1.2598,6.4795-1.2598,3.4805,0,6.3896,.8203,8.7305,2.46,2.3398,1.6406,3.7695,3.7803,4.29,6.4199l-7.5605,1.5c-.1602-1.2393-.75-2.2393-1.7695-3-1.0205-.7598-2.3311-1.1396-3.9307-1.1396-1.4395,0-2.4805,.29-3.1201,.8691-.6396,.5811-.96,1.2705-.96,2.0703,0,.5996,.1807,1.1104,.54,1.5303,.3604,.4199,1.0801,.75,2.1602,.9902l7.1406,1.5596c2.5586,.5605,4.5088,1.5898,5.8496,3.0898,1.3398,1.5,2.0098,3.291,2.0098,5.3701,0,3.2402-1.1904,5.7207-3.5693,7.4404-2.3809,1.7188-5.5713,2.5801-9.5703,2.5801-3.5605,0-6.6006-.7305-9.1201-2.1904s-3.96-3.6689-4.3203-6.6299l7.9805-1.6201c.1992,1.4404,.8496,2.4805,1.9502,3.1201Z"/><path class="e" d="M571.791,654.2321l-18.1807,42h-8.8193l5.5791-12.96-12.4199-29.04h8.8203l7.9199,19.1396,8.2803-19.1396h8.8203Z"/><path class="e" d="M604.9102,682.8522c0,4.5195-1.4395,8.0293-4.3203,10.5303-2.8799,2.499-6.7793,3.75-11.6992,3.75-3.4414,0-6.4004-.5703-8.8809-1.7109-2.4805-1.1396-4.3799-2.7695-5.6992-4.8896l6.4199-4.8604c1.2393,1.5605,2.4395,2.6709,3.5996,3.3301,1.1602,.6602,2.6797,.9902,4.5605,.9902,2.5586,0,4.5898-.7402,6.0898-2.2197,1.5-1.4805,2.25-3.5205,2.25-6.1201v-1.9805c-2.2803,1.8408-5.4209,2.7607-9.4199,2.7607-2.4805,0-4.8408-.6494-7.0801-1.9502-2.2412-1.2988-4.041-3.0605-5.4004-5.2803-1.3604-2.2197-2.04-4.6689-2.04-7.3496,0-2.6396,.6797-5.0703,2.04-7.29,1.3594-2.2197,3.1592-3.9697,5.4004-5.25,2.2393-1.2793,4.5996-1.9199,7.0801-1.9199,3.9189,0,7.0586,.9199,9.4199,2.7598v-1.8594h7.6201l.0596,28.5596Zm-11.7598-8.1904c1.2393-.6602,2.2295-1.5791,2.9697-2.7598,.7402-1.1797,1.1104-2.5293,1.1104-4.0498,0-1.5195-.3701-2.8701-1.1104-4.0498s-1.7305-2.1006-2.9697-2.7598c-1.2402-.6602-2.5605-.9902-3.96-.9902-2.4004,0-4.3799,.7197-5.9404,2.1602-1.5596,1.4395-2.3398,3.3203-2.3398,5.6396s.7803,4.2002,2.3398,5.6396c1.5605,1.4404,3.54,2.1602,5.9404,2.1602,1.3994,0,2.7197-.3301,3.96-.9902Z"/></g></g><g id="c"><g><g><polygon class="f" points="456.0306 64.3831 199.1594 289.3011 209.6433 301.2733 456.0306 85.5392 610.3568 220.6662 620.8406 208.694 456.0306 64.3831"/><rect class="f" x="269.8172" y="306.9391" width="15.9142" height="178.1503"/></g><g><rect class="g" x="389.9707" y="423.4814" width="15.9142" height="61.6033"/><path class="g" d="M336.5211,399.3063l-.0047,85.7831h15.9142l.0047-85.7831c0-32.5443,26.4758-59.0177,59.02-59.0177v-15.9189c-41.3185,0-74.9342,33.6181-74.9342,74.9366Z"/><path class="g" d="M575.5401,399.3063c0-41.3185-33.6157-74.9366-74.9342-74.9366v15.9189c32.5443,0,59.02,26.4734,59.02,59.0177l.0047,85.7831h15.9142l-.0047-85.7831Z"/><rect class="g" x="506.1763" y="423.4814" width="15.9142" height="61.6033"/><path class="g" d="M456.0306,191.5224c-33.6463,0-61.0193,27.373-61.0193,61.0193s27.373,61.0193,61.0193,61.0193,61.0193-27.373,61.0193-61.0193-27.373-61.0193-61.0193-61.0193Zm0,106.1197c-24.8697,0-45.1051-20.233-45.1051-45.1004s20.2354-45.1004,45.1051-45.1004,45.1051,20.233,45.1051,45.1004-20.2354,45.1004-45.1051,45.1004Z"/></g></g></g><g id="d"/></svg>